<svg width="58" height="135" viewBox="0 0 58 135" fill="none" xmlns="http://www.w3.org/2000/svg">
<path d="M37.0078 93.4304L48.0795 90.5L57.5686 121.096L46.5768 124.059L37.0078 93.4304Z" fill="#77BFC5"/>
<path d="M46.594 124.059L44.1549 123.568L35.5859 93.8859L37.0243 93.4258L46.594 124.059Z" fill="#467A7D"/>
<path d="M26.6719 38.3353L37.6671 36.0195L48.0827 90.5087L36.9906 93.4525L26.6719 38.3353Z" fill="#8ED0D3"/>
<path d="M33.8645 0.958984L22.0078 2.92068L26.5962 38.3838L37.6537 36.0571L33.8645 0.958984Z" fill="#77BFC5"/>
<path d="M22.009 2.99414L20.6484 4.67587L25.0734 39.62L26.7244 38.3795L22.009 2.99414Z" fill="#5D989E"/>
<path d="M35.5854 93.9035L37.0354 93.4883L26.7166 38.3828L25.0625 39.6179L35.5854 93.9035Z" fill="#4F8B92"/>
<path d="M11.8976 70.7168L6.35156 71.8962L25.3553 117.772L30.317 116.646L11.8976 70.7168Z" fill="#4F8B92"/>
<path d="M0.96875 36.574L6.55547 35.25L11.9165 70.7301L6.35131 71.9185L0.96875 36.574Z" fill="#5D989E"/>
<path d="M6.4375 35.2524L12.0746 30.8359L17.2118 66.799L11.8891 70.7379L6.4375 35.2524Z" fill="#77BFC5"/>
<path d="M17.2138 66.7981L17.9481 64.3012L13.2681 29.5273L12.0625 30.8594L17.2138 66.7981Z" fill="#5D989E"/>
<path d="M30.3233 116.598L35.1081 112.581L17.2252 66.8125L11.8828 70.7415L30.3233 116.598Z" fill="#8ED0D3"/>
<path d="M52.4466 129.133L35.0984 112.611L30.2969 116.585L47.7805 132.78L52.4466 129.133Z" fill="#77BFC5"/>
<path d="M35.1033 112.611L36.1345 109.99L17.9465 64.3105L17.2109 66.8184L35.1033 112.611Z" fill="#4F8B92"/>
<path d="M53.7798 126.579L52.451 129.157L35.1016 112.616L36.1355 110L53.7798 126.579Z" fill="#467A7D"/>
<path d="M13.2722 29.5273H8.23474L3.73737 31.6702L0.8125 34.9925L0.967014 36.5725L6.44718 35.2768L12.0697 30.8637" fill="white"/>
<path d="M47.7786 132.763L30.2875 116.596L25.3438 117.678L43.6382 134.141L47.7786 132.763Z" fill="#467A7D"/>
</svg>
