<svg width="73" height="134" viewBox="0 0 73 134" fill="none" xmlns="http://www.w3.org/2000/svg">
<path d="M55.0992 94.442L44.0537 91.4142L34.2954 121.926L45.2607 124.985L55.0992 94.442Z" fill="#77BFC5"/>
<path d="M45.2459 124.984L47.6892 124.514L56.5194 94.9094L55.0852 94.4365L45.2459 124.984Z" fill="#467A7D"/>
<path d="M65.9171 39.4387L54.9427 37.0262L44.0473 91.4214L55.113 94.4628L65.9171 39.4387Z" fill="#8ED0D3"/>
<path d="M59.0657 2.00098L70.9046 4.06708L66.0038 39.4884L54.9673 37.0644L59.0657 2.00098Z" fill="#77BFC5"/>
<path d="M70.8973 4.14035L72.243 5.834L67.5103 40.7378L65.8703 39.4828L70.8973 4.14035Z" fill="#5D989E"/>
<path d="M56.5195 94.9258L55.0732 94.4979L65.8772 39.4854L67.5204 40.7351L56.5195 94.9258Z" fill="#4F8B92"/>
<path d="M11.1398 70.4805L5.59375 71.6599L24.5975 117.536L29.5592 116.409L11.1398 70.4805Z" fill="#4F8B92"/>
<path d="M0.203125 36.3377L5.78984 35.0137L11.1509 70.4938L5.58568 71.6822L0.203125 36.3377Z" fill="#5D989E"/>
<path d="M5.67969 35.0161L11.3168 30.5996L16.454 66.5626L11.1313 70.5015L5.67969 35.0161Z" fill="#77BFC5"/>
<path d="M16.4481 66.5618L17.1825 64.0649L12.5025 29.291L11.2969 30.623L16.4481 66.5618Z" fill="#5D989E"/>
<path d="M29.5576 116.36L34.3425 112.342L16.4595 66.5742L11.1172 70.5032L29.5576 116.36Z" fill="#8ED0D3"/>
<path d="M50.1354 127.343L34.3328 112.375L29.5312 116.349L47.0148 132.544L50.1354 127.343Z" fill="#77BFC5"/>
<path d="M34.3377 112.375L35.3689 109.753L17.1808 64.0742L16.4453 66.582L34.3377 112.375Z" fill="#4F8B92"/>
<path d="M49.2885 122.276L47.9596 124.854L34.3359 112.379L35.3698 109.764L49.2885 122.276Z" fill="#467A7D"/>
<path d="M12.5066 29.291H7.46912L2.97175 31.4339L0.046875 34.7562L0.201389 36.3362L5.68155 35.0405L11.3041 30.6274" fill="white"/>
<path d="M47.0129 132.528L29.5219 116.361L24.5781 117.444L42.8725 133.906L47.0129 132.528Z" fill="#467A7D"/>
</svg>
