<svg width="69" height="152" viewBox="0 0 69 152" fill="none" xmlns="http://www.w3.org/2000/svg">
<path d="M23.8695 106.484L31.2237 107.502L19.2005 144.692L11.7344 142.894L23.8695 106.484Z" fill="#77BFC5"/>
<path d="M29.3828 0.228516H37.2156L38.0753 42.1132H30.6088L29.3828 0.228516Z" fill="#77BFC5"/>
<path d="M38.0691 42.1133L31.1864 107.52L23.8594 106.511L30.6069 42.114L38.0691 42.1133Z" fill="#8ED0D3"/>
<path d="M37.2031 0.230469L43.761 1.8473L44.4406 44.4961L38.0246 42.1013L37.2031 0.230469Z" fill="#5D989E"/>
<path d="M30.607 42.1272L28.4905 42.5418L27.375 1.03592L29.482 0.285156L30.607 42.1272Z" fill="#5D989E"/>
<path d="M37.1999 107.521H31.1484L38.0292 42.0977L44.4388 44.4914L37.1999 107.521Z" fill="#4F8B92"/>
<path d="M28.4994 42.5423L30.6163 42.123L23.8766 106.496L22.1328 105.882L28.4994 42.5423Z" fill="#4F8B92"/>
<path d="M19.1797 144.693L24.9909 145.479L37.2065 107.541L31.1519 107.49L19.1797 144.693Z" fill="#467A7D"/>
<path d="M22.1316 105.883L23.8727 106.487L11.7365 142.91L10.7031 139.696L22.1316 105.883Z" fill="#467A7D"/>
<path d="M15.6719 144.812L34.0336 127.469L40.4304 131.57L21.0985 151.249L15.6719 144.812Z" fill="#77BFC5"/>
<path d="M40.432 131.633L59.8688 85.8072L52.5827 81.4863L34.0391 127.477L40.432 131.633Z" fill="#8ED0D3"/>
<path d="M56.7958 51.2773L63.956 54.5563L59.8813 85.8221L52.5859 81.4943L56.7958 51.2773Z" fill="#77BFC5"/>
<path d="M21.1094 151.249L27.1432 151.078L44.8711 133.456L40.381 131.594L21.1094 151.249Z" fill="#467A7D"/>
<path d="M44.8677 133.493L63.9017 88.1635L59.8594 85.8203L40.3672 131.597L44.8677 133.493Z" fill="#4F8B92"/>
<path d="M59.8672 85.8224L63.9068 88.1794L68.7052 56.6421L63.9514 54.5527L59.8672 85.8224Z" fill="#5D989E"/>
<path d="M0.4375 151.265H21.0632L14.4443 111.686H5.53916L0.4375 151.265Z" fill="#77BFC5"/>
<path d="M14.523 111.686L10.076 38.1533L0.351562 37.6992L5.52753 111.687L14.523 111.686Z" fill="#8ED0D3"/>
<path d="M12.0294 37.5234L16.3032 110.963L14.444 111.708L10.0469 38.2534L12.0294 37.5234Z" fill="#4F8B92"/>
<path d="M21.0586 151.265L22.9738 149.489L16.3069 110.953L14.4375 111.688L21.0586 151.265Z" fill="#467A7D"/>
</svg>
