<svg width="145" height="163" viewBox="0 0 145 163" fill="none" xmlns="http://www.w3.org/2000/svg">
<path d="M58.0547 128.844L46.8695 128.171L43.5174 160.549L50.9542 162.131L58.0547 128.844Z" fill="#42B98C"/>
<path d="M50.9669 162.088L55.2495 161.839L60.0663 133.835L55.6548 133.988L50.9669 162.088Z" fill="#0BAB5C"/>
<path d="M46.9292 128.066L44.1856 124.499L40.913 158.627L43.6166 160.588L46.9292 128.066Z" fill="#21ED94"/>
<path d="M41.9827 88.4089L46.3728 86.5546L46.863 128.031L44.0486 124.439L41.9827 88.4089Z" fill="#42B98C"/>
<path d="M53.756 85.05L58.313 86.0192L59.6137 118.68L54.7925 122.637L53.756 85.05Z" fill="#0BAB5C"/>
<path d="M54.9502 128.667L46.8602 128.031L46.2645 86.587L53.7619 85.0136L54.9502 128.667Z" fill="#8DFF1A"/>
<path d="M143.438 126.961L141.121 131.246L105.84 127.062L107.116 121.063L143.438 126.961Z" fill="#0BAB5C"/>
<path d="M143.356 126.894L141.084 123.404L114.429 115.616L107.08 121.058L143.356 126.894Z" fill="#00FF86"/>
<path d="M114.876 115.489L123.477 90.3887L107.072 121.071L114.876 115.489Z" fill="#21ED94"/>
<path d="M107.092 121.055L99.1723 118.173L118.606 89.4575L123.508 90.5L107.092 121.055Z" fill="#8DFF1A"/>
<path d="M103.696 150.021L79.4597 132.197L89.593 131.335L108.181 147.224L103.696 150.021Z" fill="#057346"/>
<path d="M54.8301 122.534L107.133 121.051L105.86 127.036L55.005 128.694L54.8301 122.534Z" fill="#42B98C"/>
<path d="M108.102 147.263L89.5104 131.283L95.1845 130.773L106.804 141.946L108.102 147.263Z" fill="#42B98C"/>
<path d="M59.5805 118.662L54.8432 122.531L107.163 121.049L99.1845 118.194" fill="#21ED94"/>
<path d="M103.681 130.357L105.833 126.964L141.047 131.242L138.091 133.825" fill="#01E0A5"/>
<path d="M54.9276 128.658L105.852 127.014L103.717 130.333L55.604 134.158L54.9276 128.658Z" fill="#0BAB5C"/>
<path d="M58.3055 86.0585L53.7524 85.0902L74.7611 57.8323L77.4139 59.4341L58.3055 86.0585Z" fill="#01E0A5"/>
<path d="M74.5455 57.7032L104.686 11.0233L107.344 9.88281L77.5941 59.3956L74.5455 57.7032Z" fill="#0BAB5C"/>
<path d="M68.0151 54.0128L101.784 9.20026L104.616 11.1126L74.6723 57.792L68.0151 54.0128Z" fill="#42B98C"/>
<path d="M101.772 9.26577L101.464 6.27671L63.7374 52.9577L68.019 53.8683L101.772 9.26577Z" fill="#00FF86"/>
<path d="M63.8663 52.5701L47.2137 71.9976L51.8439 72.9824L68.0985 54.0226L63.8663 52.5701Z" fill="#0BAB5C"/>
<path d="M53.9366 85.0522L51.8936 73.0122L68.135 53.9348L74.6519 57.8379L53.9366 85.0522Z" fill="#21ED94"/>
<path d="M104.606 11.1702L101.768 9.22128L101.465 6.26977L104.214 6.30161L106.97 8.02231L107.335 9.88689L104.606 11.1702Z" fill="#8DFF1A"/>
<path d="M46.3386 86.7485L41.8898 88.508L2.05914 70.3093L5.48128 67.8206L46.3386 86.7485Z" fill="#21ED94"/>
<path d="M58.0547 128.844L46.8695 128.171L43.5174 160.549L50.9542 162.131L58.0547 128.844Z" fill="#42B98C"/>
<path d="M50.9669 162.088L55.2495 161.839L60.0663 133.835L55.6548 133.988L50.9669 162.088Z" fill="#0BAB5C"/>
<path d="M46.9292 128.066L44.1856 124.499L40.913 158.627L43.6166 160.588L46.9292 128.066Z" fill="#21ED94"/>
<path d="M41.9827 88.4089L46.3728 86.5546L46.863 128.031L44.0486 124.439L41.9827 88.4089Z" fill="#42B98C"/>
<path d="M53.756 85.05L58.313 86.0192L59.6137 118.68L54.7925 122.637L53.756 85.05Z" fill="#0BAB5C"/>
<path d="M54.9502 128.667L46.8602 128.031L46.2645 86.587L53.7619 85.0136L54.9502 128.667Z" fill="#8DFF1A"/>
<path d="M143.438 126.961L141.121 131.246L105.84 127.062L107.116 121.063L143.438 126.961Z" fill="#0BAB5C"/>
<path d="M143.356 126.894L141.084 123.404L114.429 115.616L107.08 121.058L143.356 126.894Z" fill="#00FF86"/>
<path d="M114.876 115.489L123.477 90.3887L107.072 121.071L114.876 115.489Z" fill="#21ED94"/>
<path d="M107.092 121.055L99.1723 118.173L118.606 89.4575L123.508 90.5L107.092 121.055Z" fill="#8DFF1A"/>
<path d="M103.696 150.021L79.4597 132.197L89.593 131.335L108.181 147.224L103.696 150.021Z" fill="#057346"/>
<path d="M54.8301 122.534L107.133 121.051L105.86 127.036L55.005 128.694L54.8301 122.534Z" fill="#42B98C"/>
<path d="M108.102 147.263L89.5104 131.283L95.1845 130.773L106.804 141.946L108.102 147.263Z" fill="#42B98C"/>
<path d="M59.5805 118.662L54.8432 122.531L107.163 121.049L99.1845 118.194" fill="#21ED94"/>
<path d="M103.681 130.357L105.833 126.964L141.047 131.242L138.091 133.825" fill="#01E0A5"/>
<path d="M54.9276 128.658L105.852 127.014L103.717 130.333L55.604 134.158L54.9276 128.658Z" fill="#0BAB5C"/>
<path d="M58.3055 86.0585L53.7524 85.0902L74.7611 57.8323L77.4139 59.4341L58.3055 86.0585Z" fill="#01E0A5"/>
<path d="M74.5455 57.7032L104.686 11.0233L107.344 9.88281L77.5941 59.3956L74.5455 57.7032Z" fill="#0BAB5C"/>
<path d="M68.0151 54.0128L101.784 9.20026L104.616 11.1126L74.6723 57.792L68.0151 54.0128Z" fill="#42B98C"/>
<path d="M101.772 9.26577L101.464 6.27671L63.7374 52.9577L68.019 53.8683L101.772 9.26577Z" fill="#00FF86"/>
<path d="M63.8663 52.5701L47.2137 71.9976L51.8439 72.9824L68.0985 54.0226L63.8663 52.5701Z" fill="#0BAB5C"/>
<path d="M53.9366 85.0522L51.8936 73.0122L68.135 53.9348L74.6519 57.8379L53.9366 85.0522Z" fill="#21ED94"/>
<path d="M104.606 11.1702L101.768 9.22128L101.465 6.26977L104.214 6.30161L106.97 8.02231L107.335 9.88689L104.606 11.1702Z" fill="#8DFF1A"/>
<path d="M8.90322 59.7315L53.9887 85.1181L51.8928 72.9682L8.90322 59.7315Z" fill="#8DFF1A"/>
<path d="M8.90459 59.7311L5.4821 67.8201L46.0476 86.7435L53.9427 84.9879L8.90459 59.7311Z" fill="#42B98C"/>
</svg>
