<svg width="73" height="71" viewBox="0 0 73 71" fill="none" xmlns="http://www.w3.org/2000/svg">
<path d="M38.729 34.3119L38.4018 37.7925L55.0599 70.3086L58.4821 67.8197L38.729 34.3119Z" fill="#0BAB5C"/>
<path d="M46.6389 30.4514L38.7745 34.4935L58.4774 67.8203L66.8772 63.4648L46.6389 30.4514Z" fill="#42B98C"/>
<path d="M54.4716 5.39949L51.7726 2.30521L42.441 25.4344L46.6486 30.462L54.4716 5.39949Z" fill="#42B98C"/>
<path d="M40.6846 23.3845L42.446 25.5302L51.7891 2.31445L48.152 3.95874L40.6846 23.3845Z" fill="#01E0A5"/>
<path d="M22.824 2.046L19.1459 1.93152L16.9709 4.94599L22.0854 5.53922L22.824 2.046Z" fill="#42B98C"/>
<path d="M31.6203 29.1424L16.9989 4.92264L22.0881 5.5275L38.7799 34.5019L31.6203 29.1424Z" fill="#0BAB5C"/>
<path d="M22.8264 2.03494L22.0829 5.5306L38.7743 34.5072L46.6542 30.4569L22.8264 2.03494Z" fill="#8DFF1A"/>
<path d="M38.4128 38.066L2.36442 37.9117L0.593493 36.1247L38.7859 34.4915L38.4128 38.066Z" fill="#01E0A5"/>
<path d="M0.656857 36.3241L2.45164 32.4257L31.4068 28.7831L38.7724 34.5014L0.656857 36.3241Z" fill="#42B98C"/>
</svg>
