<svg width="111" height="157" viewBox="0 0 111 157" fill="none" xmlns="http://www.w3.org/2000/svg">
<path d="M74.3168 106.442L81.0174 121.063L74.3166 119.261L59.7734 117.872L60.8816 114.133L74.3168 106.442Z" fill="#EE99BB"/>
<path d="M68.0043 80.0765L58.8624 79.332L60.8811 114.133L74.3887 106.473L68.0043 80.0765Z" fill="#E08FAF"/>
<path d="M53.8603 107.355L60.8822 114.134L58.8128 79.0653L53.8638 82.2828L53.8603 107.355Z" fill="#B36C86"/>
<path d="M58.1661 69.9623L55.1432 68.2545L50.3179 72.4319L53.8198 82.4643L58.1661 69.9623Z" fill="#904664"/>
<path d="M49.1402 91.6154L54.1735 94.1275L54.1718 107.811L42.1182 101.721L40.8504 98.6188L49.1402 91.6154Z" fill="#EE99BB"/>
<path d="M70.456 47.9585L75.1022 51.8993L68.5104 80.242L58.4334 79.3217L70.456 47.9585Z" fill="#904664"/>
<path d="M58.4325 79.3216L53.7001 82.6478L64.7989 50.7931L70.6328 47.9297L58.4325 79.3216Z" fill="#E08FAF"/>
<path d="M26.563 38.0159L31.1822 32.3112L36.0107 39.1589L28.176 45.4754L26.563 38.0159Z" fill="#F5A2B0"/>
<path d="M28.2578 45.3102L41.5779 62.5392L24.5725 59.9426L21.8198 49.8311L28.2578 45.3102Z" fill="#DD5B6E"/>
<path d="M41.5027 62.4592L53.9667 45.375L52.2057 39.3089L36.1546 38.954L28.2368 45.372L41.5027 62.4592Z" fill="#F1778C"/>
<path d="M28.3171 45.3392L26.6375 37.711L21.8117 49.959L28.3171 45.3392Z" fill="#D86578"/>
<path d="M93.6873 44.9638L84.2252 35.8375L88.2192 29.1509L101.156 27.9512L93.6873 44.9638Z" fill="#EE99BB"/>
<path d="M54.675 66.7178L39.352 69.2868L42.9938 59.588L56.8115 53.2911L54.675 66.7178Z" fill="#EE99BB"/>
<path d="M54.6933 77.773L26.3862 76.9507L24.8734 73.0292L55.0397 73.6907L54.6933 77.773Z" fill="#904664"/>
<path d="M79.8356 23.6157L88.0442 29.336L77.2122 13.4303" fill="#BB4558"/>
<path d="M93.6073 44.8956L101.182 27.738L102.648 30.508L95.3186 46.2409L93.6073 44.8956Z" fill="#B36C86"/>
<path d="M41.3761 62.4414L53.8691 45.3192L64.8399 50.8189L62.4319 57.2288" fill="#DD5B6E"/>
<path d="M64.6125 50.9063L53.5939 45.3095L69.5544 35.3765L70.589 48.4414L64.6125 50.9063Z" fill="#BB4558"/>
<path d="M84.9878 54.9887L101.555 48.2363L86.9698 47.494L75.2396 52.2173L84.9878 54.9887Z" fill="#BB4558"/>
<path d="M69.5155 35.4984L74.638 13.7363L85.4688 11.6953L69.5155 35.4984Z" fill="#F5A2B0"/>
<path d="M87.2508 47.7028L69.5216 35.4529L70.5989 48.545L75.2363 51.9921L87.2508 47.7028Z" fill="#D86578"/>
<path d="M87.1794 47.7134L101.171 48.3273L107.938 36.4668L98.9272 26.4523L87.1794 47.7134Z" fill="#D86578"/>
<path d="M98.9099 26.4943L85.5025 11.6984L99.8521 11.7L106.367 23.0273L98.9099 26.4943Z" fill="#F5A2B0"/>
<path d="M87.2105 47.7489L69.5343 35.4633L85.4823 11.6798L98.9547 26.5142L87.2105 47.7489Z" fill="#F1778C"/>
<path d="M106.252 22.8971L98.8869 26.5851L107.742 36.46L106.252 22.8971Z" fill="#BB4558"/>
<path d="M1.80009 86.0781L8.16467 95.637L7.10488 77.2954L1.80009 86.0781Z" fill="#BB4558"/>
<path d="M69.5276 35.4842L74.7261 13.7082L65.8918 6.45325L69.5276 35.4842Z" fill="#F1778C"/>
<path d="M36.0054 39.2149L53.5473 45.4589L32.1545 19.7216L31.2549 32.4143L36.0054 39.2149Z" fill="#D86578"/>
<path d="M6.91253 77.3462L7.96831 95.6561L19.0426 87.2192L12.8061 70.747L6.91253 77.3462Z" fill="#DD5B6E"/>
<path d="M49.8348 14.5034L42.3539 33.0992L32.1045 19.6376L47.2577 3.35459L49.8348 14.5034Z" fill="#F5A2B0"/>
<path d="M47.1268 3.40501L49.6971 14.579L66 6.37305L47.1268 3.40501Z" fill="#DD5B6E"/>
<path d="M66.0277 6.32704L49.846 14.4959L42.2087 33.0417L69.5437 35.4976L66.0277 6.32704Z" fill="#D86578"/>
<path d="M42.1329 32.9796L53.651 45.4577L69.5156 35.4043L42.1329 32.9796Z" fill="#DD5B6E"/>
<path d="M30.0069 67.4278L12.4802 70.797L18.9171 87.4731L37.9078 84.5137L44.5017 72.5363L30.0069 67.4278Z" fill="#F1778C"/>
<path d="M41.6264 62.4761L24.5928 59.8364L29.6984 67.4065L44.1858 72.4339L41.6264 62.4761Z" fill="#D86578"/>
<path d="M50.2814 72.6022L44.156 72.6022L41.3799 62.4197L62.4609 57.2012L60.0345 64.494L50.2814 72.6022Z" fill="#BB4558"/>
<path d="M52.8595 79.2902L49.1896 91.5832L37.7728 84.4312L44.2121 72.457L50.3317 72.4577L52.8595 79.2902Z" fill="#F5A2B0"/>
<path d="M12.6563 71.2935L1.78891 86.3002L4.52818 71.2925L12.6576 61.1594L12.6563 71.2935Z" fill="#F1778C"/>
<path d="M12.3353 71.1505L12.8334 61.0042L24.6004 59.834L29.8842 67.4001L12.3353 71.1505Z" fill="#F5A2B0"/>
<path d="M74.4127 119.16L59.7431 117.891L60.6887 149.604L76.3144 154.949L74.4127 119.16Z" fill="#E08FAF"/>
<path d="M76.1722 155.136L81.15 152.266L81.0216 121.064L74.1775 119.197L76.1722 155.136Z" fill="#B36C86"/>
<path d="M60.883 114.132L54.0983 107.623L52.4887 111.477L59.7747 117.872L60.883 114.132Z" fill="#904664"/>
<path d="M52.4347 111.502L38.7205 102.223L42.0451 101.53L54.0969 107.763L52.4347 111.502Z" fill="#B36C86"/>
<path d="M41.9971 101.568L49.6875 91.0664L23.8909 99.3125L28.3414 104.63L41.9971 101.568Z" fill="#BB4558"/>
<path d="M18.868 87.327L25.1745 98.9641L49.1371 91.5284L37.7567 84.4079L18.868 87.327Z" fill="#DD5B6E"/>
<path d="M18.9424 87.1402L8.07755 95.5086L13.9943 102.664L28.2941 104.613L18.9424 87.1402Z" fill="#D86578"/>
</svg>
