<svg width="89" height="147" viewBox="0 0 89 147" fill="none" xmlns="http://www.w3.org/2000/svg">
<path d="M27.983 85.7293L26.0383 88.4403L11.0765 29.8709L13.5218 26.6935L27.983 85.7293Z" fill="#8DFF1A"/>
<path d="M22.9118 94.5252L15.7966 124.979L5.66075 116.943L22.9118 94.5252Z" fill="#057346"/>
<path d="M16.0416 123.313L31.4647 95.9368L22.8657 94.5369L16.0416 123.313Z" fill="#0BAB5C"/>
<path d="M11.0742 41.6143L22.8701 94.5422L28.7417 95.5025L11.0742 41.6143Z" fill="#42B98C"/>
<path d="M26.7332 103.948L40.9025 110.267L33.2735 116.051L26.7342 113.326L26.7332 103.948Z" fill="#42B98C"/>
<path d="M42.0588 107.585L30.6832 114.943L29.9467 106.112L34.8951 103.292L42.0588 107.585Z" fill="#42B98C"/>
<path d="M37.6237 117.331L33.5205 115.073L33.52 111.233L38.0774 108.5L37.6237 117.331Z" fill="#42B98C"/>
<path d="M30.5368 115.722L25.6992 110.909L36.6482 107.403L35.9975 113.674L30.5368 115.722Z" fill="#42B98C"/>
<path d="M27.7445 122.795L47.1982 98.9661L36.9332 92.5058L23.5219 120.491L27.7445 122.795Z" fill="#42B98C"/>
<path d="M23.1238 117.444L31.0645 122.413L42.7384 96.2073L39.0643 93.8283L23.1238 117.444Z" fill="#42B98C"/>
<path d="M50.7825 114.845L50.3026 118.872L26.5879 121.673L27.1121 112.902L50.7825 114.845Z" fill="#42B98C"/>
<path d="M25.6578 97.6612L30.3235 96.4123L42.9117 120.651L32.0885 124.166L25.6578 97.6612Z" fill="#42B98C"/>
<path d="M30.9778 122.49L25.9313 125.991L22.347 123.852L23.1461 117.376L30.9778 122.49Z" fill="#42B98C"/>
<path d="M50.2442 116.862L52.0558 143.313L35.9092 140.502L50.2442 116.862Z" fill="#0BAB5C"/>
<path d="M44.8444 73.8362L63.414 140.17L50.1945 116.977L44.8468 94.6798L44.8444 73.8362Z" fill="#21ED94"/>
<path d="M50.2549 116.844L51.972 143.174L63.7168 140.284L50.2549 116.844Z" fill="#057346"/>
<path d="M44.8147 73.8383L52.5513 101.513L45.6599 22.0738L44.8147 73.8383Z" fill="#00FF86"/>
<path d="M35.9367 140.53L50.2434 116.855L44.9347 94.2976L35.9367 140.53Z" fill="#42B98C"/>
<path d="M40.3434 118.813L44.735 95.3671L26.8984 97.8662L40.3434 118.813Z" fill="#0BAB5C"/>
<path d="M44.8591 71.9215L24.0998 1.47739L17.6744 14.9382L44.8619 95.5004L44.8591 71.9215Z" fill="#00FF86"/>
<path d="M44.8182 95.3317L17.7881 14.7162L26.9905 97.9488L44.8182 95.3317Z" fill="#21ED94"/>
<path d="M26.8899 97.8681L40.3007 118.363L36.646 137.158L17.333 136.594L26.8899 97.8681Z" fill="#057346"/>
<path d="M17.3741 136.744L26.8979 97.9031L10.7739 132.882L17.3741 136.744Z" fill="#42B98C"/>
<path d="M66.1239 4.05353L54.0863 39.89L62.5369 51.2353L66.1239 4.05353Z" fill="#8DFF1A"/>
<path d="M55.2125 97.9482L55.4771 101.28L56.8882 116.797L68.9125 99.8491L55.2125 97.9482Z" fill="#0BAB5C"/>
<path d="M55.251 97.9359L68.9075 99.8536L62.5486 51.0942L55.251 97.9359Z" fill="#21ED94"/>
<path d="M54.1859 39.8908L62.5836 51.1408L55.2237 97.9818L54.1859 39.8908Z" fill="#42B98C"/>
<path d="M68.8521 99.7649L68.8534 110.403L61.3145 132.711L56.8594 116.813L68.8521 99.7649Z" fill="#057346"/>
</svg>
