<svg width="349" height="391" viewBox="0 0 349 391" fill="none" xmlns="http://www.w3.org/2000/svg">
<path d="M179.063 93.5669L162.168 114.225L102.455 69.4367L119.155 48.8267L179.063 93.5669Z" fill="#77BFC5"/>
<path d="M119.131 48.8462L124.407 46.4415L181.133 90.76L179.047 93.5936L119.131 48.8462Z" fill="#467A7D"/>
<path d="M311.343 263.813L331.043 243.911L273.931 183.241L256.238 202.74L311.343 263.813Z" fill="#77BFC5"/>
<path d="M330.944 243.772L331.214 238.739L275.12 178.826L273.698 183.423L330.944 243.772Z" fill="#5D989E"/>
<path d="M181.104 90.7297L178.934 93.4942L273.698 183.411L275.133 178.82L181.104 90.7297Z" fill="#4F8B92"/>
<path d="M257.489 102.134L266.346 92.3305L167.798 31.7014L159.972 40.6058L257.489 102.134Z" fill="#4F8B92"/>
<path d="M324.773 151.642L316.037 161.773L257.444 102.127L266.325 92.2809L324.773 151.642Z" fill="#5D989E"/>
<path d="M316.247 161.619L311.641 177.657L252.81 116.793L257.476 102.086L316.247 161.619Z" fill="#77BFC5"/>
<path d="M252.813 116.794L254.839 122.51L311.181 181.754L311.637 177.592L252.813 116.794Z" fill="#5D989E"/>
<path d="M160.041 40.6985L156.498 54.8191L252.783 116.777L257.499 102.062L160.041 40.6985Z" fill="#8ED0D3"/>
<path d="M101.147 47.2673L156.464 54.7506L160.098 40.6898L104.971 34.0077L101.147 47.2673Z" fill="#77BFC5"/>
<path d="M156.453 54.7592L158.087 61.1157L254.827 122.488L252.789 116.75L156.453 54.7592Z" fill="#4F8B92"/>
<path d="M102.125 53.9068L101.111 47.2251L156.458 54.7442L158.08 61.0938L102.125 53.9068Z" fill="#467A7D"/>
<path d="M311.177 181.757L320.685 174.875L326.247 164.685L327.229 154.418L324.778 151.647L316.204 161.58L311.621 177.592" fill="white"/>
<path d="M105.007 34.0306L160.11 40.6494L167.962 31.8517L110.939 25.7727L105.007 34.0306Z" fill="#467A7D"/>
<path d="M86.8787 49.3467L69.5407 57.1681L136.109 122.834L152.918 110.667L86.8787 49.3467Z" fill="#77BFC5"/>
<path d="M135.957 122.944L244.813 255.665L263.789 243.236L152.935 110.652L135.957 122.944Z" fill="#8ED0D3"/>
<path d="M325.773 367.355L323.282 372.844L241.975 259.518L244.706 255.398L325.773 367.355Z" fill="#5D989E"/>
<path d="M241.981 259.529L133.578 126.747L136.07 122.801L244.725 255.443L241.981 259.529Z" fill="#4F8B92"/>
<path d="M69.5402 57.1681L68.3512 63.1365L133.585 126.767L136.11 122.827L69.5402 57.1681Z" fill="#467A7D"/>
<path d="M345.309 353.293L325.774 367.377L323.314 372.874L327.7 373.563L341.674 363.449L345.535 358.33L345.309 353.293Z" fill="white"/>
<path d="M112.223 162.239L96.9521 170.367L68.8362 83.7418L85.3843 76.9339L112.223 162.239Z" fill="#77BFC5"/>
<path d="M246.996 370.334L232.211 381.035L173.364 303.15L187.458 292.949L246.996 370.334Z" fill="#77BFC5"/>
<path d="M173.362 303.15L96.9931 170.288L112.201 162.182L187.446 292.953L173.362 303.15Z" fill="#8ED0D3"/>
<path d="M232.223 381.019L217.635 386.926L158.085 307.353L173.467 303.108L232.223 381.019Z" fill="#5D989E"/>
<path d="M187.429 292.928L190.857 289.254L249.67 366.075L246.718 370.37L187.429 292.928Z" fill="#5D989E"/>
<path d="M190.851 289.258L187.428 292.942L112.202 162.227L116.331 161.002L190.851 289.258Z" fill="#4F8B92"/>
<path d="M68.8762 83.714L56.8329 90.1692L85.6075 178.468L97.105 170.292L68.8762 83.714Z" fill="#467A7D"/>
<path d="M116.331 161.001L112.219 162.239L85.3644 76.9085L91.7054 81.5623L116.331 161.001Z" fill="#467A7D"/>
<path d="M65.5354 75.0512L54.5718 132.874L36.8943 133.873L46.4976 70.3146L65.5354 75.0512Z" fill="#77BFC5"/>
<path d="M36.8033 133.753L62.7246 246.807L82.3808 245.008L54.5486 132.863L36.8033 133.753Z" fill="#8ED0D3"/>
<path d="M115.702 307.787L97.707 311.38L62.682 246.797L82.3651 244.999L115.702 307.787Z" fill="#77BFC5"/>
<path d="M46.4778 70.3286L35.3226 78.8954L25.936 136.378L36.9558 133.759L46.4778 70.3286Z" fill="#467A7D"/>
<path d="M62.708 246.779L51.8629 247.849L85.8929 313.933L97.7206 311.382L62.708 246.779Z" fill="#5D989E"/>
<path d="M273.843 183.439L256.253 202.832L162.148 114.211L179.063 93.4999L273.843 183.439Z" fill="#8ED0D3"/>
</svg>
