<svg width="205" height="252" viewBox="0 0 205 252" fill="none" xmlns="http://www.w3.org/2000/svg">
<path d="M109.828 128.639L95.0491 127.436L98.3124 183.696L120.149 171.312L109.828 128.639Z" fill="#E08FAF"/>
<path d="M86.9623 172.736L98.3141 183.695L94.9687 127.002L86.9679 132.204L86.9623 172.736Z" fill="#B36C86"/>
<path d="M93.9231 112.289L89.0363 109.529L81.2356 116.282L86.8969 132.5L93.9231 112.289Z" fill="#904664"/>
<path d="M79.3231 147.294L87.4601 151.355L87.4574 173.475L67.9714 163.632L65.9218 158.616L79.3231 147.294Z" fill="#EE99BB"/>
<path d="M113.791 76.7182L121.302 83.0889L110.646 128.908L94.355 127.42L113.791 76.7182Z" fill="#904664"/>
<path d="M94.3471 127.419L86.6968 132.796L104.639 81.2996L114.07 76.6707L94.3471 127.419Z" fill="#E08FAF"/>
<path d="M45.566 72.4343L67.0994 100.287L39.6084 96.0892L35.1583 79.7428L45.566 72.4343Z" fill="#DD5B6E"/>
<path d="M66.982 100.158L87.1314 72.5397L84.2845 62.7332L58.3361 62.1594L45.5362 72.5348L66.982 100.158Z" fill="#F1778C"/>
<path d="M45.6625 72.4825L42.9472 60.1506L35.1457 79.9509L45.6625 72.4825Z" fill="#D86578"/>
<path d="M151.34 71.8751L136.043 57.1215L142.5 46.3119L163.414 44.3723L151.34 71.8751Z" fill="#EE99BB"/>
<path d="M88.2808 107.045L63.5095 111.198L69.3968 95.5192L91.7346 85.3395L88.2808 107.045Z" fill="#EE99BB"/>
<path d="M88.3085 124.916L42.547 123.587L40.1014 117.247L88.8685 118.317L88.3085 124.916Z" fill="#904664"/>
<path d="M128.958 37.365L142.228 46.6125L124.717 20.8992" fill="#BB4558"/>
<path d="M151.216 71.764L163.461 44.0269L165.832 48.505L153.983 73.9389L151.216 71.764Z" fill="#B36C86"/>
<path d="M66.7802 100.129L86.9766 72.4494L104.712 81.3404L100.819 91.7027" fill="#DD5B6E"/>
<path d="M104.343 81.4802L86.5299 72.4322L112.332 56.3744L114.004 77.4953L104.343 81.4802Z" fill="#BB4558"/>
<path d="M137.276 88.0838L164.059 77.1678L140.48 75.9678L121.517 83.6035L137.276 88.0838Z" fill="#BB4558"/>
<path d="M112.268 56.5741L120.549 21.3932L138.059 18.0938L112.268 56.5741Z" fill="#F5A2B0"/>
<path d="M140.944 76.3027L112.283 56.4995L114.025 77.6643L121.522 83.2369L140.944 76.3027Z" fill="#D86578"/>
<path d="M140.824 76.3189L163.443 77.3113L174.382 58.1375L159.816 41.9479L140.824 76.3189Z" fill="#D86578"/>
<path d="M140.873 76.3785L112.298 56.5175L138.079 18.0688L159.859 42.0502L140.873 76.3785Z" fill="#F1778C"/>
<path d="M171.659 36.2013L159.753 42.1634L174.068 58.1273L171.659 36.2013Z" fill="#BB4558"/>
<path d="M2.80145 138.341L13.0905 153.794L11.3772 124.142L2.80145 138.341Z" fill="#BB4558"/>
<path d="M112.288 56.551L120.692 21.3478L106.41 9.6193L112.288 56.551Z" fill="#F1778C"/>
<path d="M58.0885 62.5804L86.447 72.6746L51.8631 31.0674L50.4089 51.5865L58.0885 62.5804Z" fill="#D86578"/>
<path d="M11.0636 124.227L12.7704 153.827L30.6731 140.188L20.5913 113.559L11.0636 124.227Z" fill="#DD5B6E"/>
<path d="M80.4498 22.6333L68.3562 52.6954L51.7869 30.9333L76.2837 4.60998L80.4498 22.6333Z" fill="#F5A2B0"/>
<path d="M67.9984 52.5008L86.6187 72.673L112.266 56.4206L67.9984 52.5008Z" fill="#DD5B6E"/>
<path d="M48.3931 108.193L20.0592 113.639L30.4653 140.598L61.1659 135.814L71.8255 116.451L48.3931 108.193Z" fill="#F1778C"/>
<path d="M67.1833 100.186L39.6467 95.9184L47.9004 108.156L71.3209 116.284L67.1833 100.186Z" fill="#D86578"/>
<path d="M81.1776 116.556L71.2752 116.556L66.7873 100.095L100.867 91.659L96.9445 103.449L81.1776 116.556Z" fill="#BB4558"/>
<path d="M85.3391 127.37L79.4062 147.243L60.9497 135.681L71.3597 116.324L81.2527 116.325L85.3391 127.37Z" fill="#F5A2B0"/>
<path d="M20.3494 114.439L2.78108 138.699L7.2094 114.437L20.3514 98.0562L20.3494 114.439Z" fill="#F1778C"/>
<path d="M120.186 191.822L96.4714 189.769L98.0002 241.037L123.261 249.679L120.186 191.822Z" fill="#E08FAF"/>
<path d="M123.024 249.982L131.071 245.342L131.173 195.422L119.905 192.012L123.024 249.982Z" fill="#B36C86"/>
<path d="M98.3136 183.696L87.3454 173.173L84.7433 179.403L96.522 189.741L98.3136 183.696Z" fill="#904664"/>
<path d="M119.34 171.105L119.343 171.1L120.034 191.985L96.5227 189.741L98.3143 183.695L119.34 171.105Z" fill="#EE99BB"/>
<path d="M158.651 170L161.576 172.418L131.364 195.729L119.811 191.98L158.651 170Z" fill="#904664"/>
<path d="M119.811 191.98L118.376 171.503L143.542 155.311L158.598 170.086L119.811 191.98Z" fill="#E08FAF"/>
<path d="M198.595 114.175L201.937 122.74L188.948 145.77L177.161 135.609L198.595 114.175Z" fill="#DD5B6E"/>
<path d="M177.211 136.022L198.802 113.944L167.03 80.6279L141.03 86.8537L131.642 119.282L177.211 136.022Z" fill="#F1778C"/>
<path d="M177.203 135.993L132.035 119.209L149.16 144.755L177.203 135.993Z" fill="#D86578"/>
<path d="M158.625 170.125L143.328 155.372L149.785 144.562L170.699 142.622L158.625 170.125Z" fill="#EE99BB"/>
<path d="M136.239 135.616L149.509 144.863L131.998 119.15" fill="#BB4558"/>
<path d="M158.501 170.016L170.746 142.279L173.117 146.757L161.268 172.191L158.501 170.016Z" fill="#B36C86"/>
<path d="M84.6524 179.441L62.4818 164.44L67.8565 163.32L87.3395 173.396L84.6524 179.441Z" fill="#B36C86"/>
<path d="M149.501 144.601L177.266 135.881L188.976 145.494" fill="#BB4558"/>
<path d="M67.7747 163.383L80.207 146.406L38.5039 159.737L45.6987 168.333L67.7747 163.383Z" fill="#BB4558"/>
<path d="M30.3912 140.36L40.5864 159.173L79.3246 147.152L60.9268 135.641L30.3912 140.36Z" fill="#DD5B6E"/>
<path d="M30.5142 140.056L12.95 153.584L22.5151 165.153L45.6322 168.303L30.5142 140.056Z" fill="#D86578"/>
</svg>
