<svg width="310" height="190" viewBox="0 0 310 190" fill="none" xmlns="http://www.w3.org/2000/svg">
<path d="M177.161 165.518L193.687 159.892L296.393 74.46L220.453 99.2996L177.161 165.518Z" fill="#198E91"/>
<path d="M43.9028 66.3106L6.33619 76.5476L84.0985 99.0603L99.1451 83.5446L43.9028 66.3106Z" fill="#2FF7E1"/>
<path d="M34.8566 42.0562L6.4321 76.5835L43.9703 66.4061L64.2989 42.053L34.8566 42.0562Z" fill="#01E0A5"/>
<path d="M154.698 168.303L130.287 168.312L84.1055 99.0528L154.986 99.0442L154.698 168.303Z" fill="#0A626B"/>
<path d="M6.42188 76.4752L84.2017 99.0756L130.281 168.303L107.835 166.076L91.6528 159.731L6.42188 76.4752Z" fill="#198E91"/>
<path d="M84.0952 99.0548L220.554 99.2844L200.104 82.7788L98.9211 83.4543L84.0952 99.0548Z" fill="#01E0A5"/>
<path d="M138.772 79.4895L149.765 75.3203L118.472 23.2509L64.3333 42.0471L138.772 79.4895Z" fill="#36BCAD"/>
<path d="M253.956 64.8222L200.183 82.8385L220.522 99.2656L296.421 74.4658" fill="#2FF7E1"/>
<path d="M220.491 99.2545L154.948 99.1771L154.618 168.343L177.25 165.464L220.491 99.2545Z" fill="#0A626B"/>
<path d="M135.459 83.2245L176.192 82.9811L172.528 78.882L161.463 75.3276L149.801 75.3095L138.766 79.1587L135.459 83.2245Z" fill="#0A626B"/>
<path d="M264.777 39.637L187.227 15.6293L175.755 22.5091L230.912 39.7446L264.777 39.637Z" fill="#2FF7E1"/>
<path d="M175.778 22.4832L231.097 39.7104L172.569 78.875L161.369 75.3355L175.778 22.4832Z" fill="#36BCAD"/>
<path d="M34.7709 42.0686L109.973 16.8338L110.167 16.9864L118.321 23.3552L64.3482 42.0649L34.7709 42.0686Z" fill="#2FF7E1"/>
<path d="M296.415 74.4745L264.767 39.6353L230.926 39.5948L253.999 64.841L296.415 74.4745Z" fill="#01E0A5"/>
<path d="M172.459 78.8117L176.176 82.9776L200.262 82.8096L253.981 64.8143L231 39.6093L172.459 78.8117Z" fill="#45B598"/>
<path d="M161.42 75.3212L161.337 75.3212L175.393 22.643L176.478 22.711L161.42 75.3212Z" fill="#F8F7F7"/>
<path d="M98.8912 83.5015L101.037 83.5014L44.4764 65.668L44.0187 66.3372L98.8912 83.5015Z" fill="#FDFCFC"/>
<path d="M188.042 15.8787L176.492 22.7316L175.378 22.6623L186.508 15.6557L187.263 15.616L188.042 15.8787Z" fill="#F8F7F7"/>
<path d="M118.948 23.2666L117.68 23.591L109.468 17.0063L109.988 16.8243L110.678 16.8246L118.948 23.2666Z" fill="white"/>
<path d="M44.4914 65.6816L44.0084 66.3267L44.8075 66.5883L8.98069 77.2636L6.39511 76.5127L8.17916 74.4328L44.4914 65.6816Z" fill="#FDFCFC"/>
<path d="M63.8052 42.6377L138.683 79.2316L138.879 79.1072L65.2412 41.773L64.3277 42.0479L63.8052 42.6377Z" fill="#FDFCFC"/>
<path d="M264.781 39.6089L265.279 40.1945L231.449 40.0683L230.5 39.5318L263.649 39.2686L264.781 39.6089Z" fill="#F8F7F7"/>
<path d="M34.8682 42.0099L36.4439 41.4854L65.2727 41.7674L64.3151 42.0581L63.8081 42.6435L34.2328 42.8116L34.8682 42.0099Z" fill="#FDFCFC"/>
<path d="M149.868 75.2997L149.739 75.3303L117.688 23.5967L118.875 23.2831L149.868 75.2997Z" fill="white"/>
<path d="M220.485 99.3052L221.858 98.8048L177.429 165.435L176.899 165.516L219.125 99.3055L220.485 99.3052Z" fill="#F8F7F7"/>
<path d="M200.779 82.6058L221.823 98.8505L220.501 99.3049L219.126 99.3051L199.555 82.8516L200.248 82.8517L200.779 82.6058Z" fill="#F8F7F7"/>
<path d="M253.99 64.8581L253.2 63.9481L176.155 82.9774L177.395 82.9772L252.861 65.1791L253.99 64.8581Z" fill="#F8F7F7"/>
<path d="M253.206 63.9673L253.989 64.8647L252.856 65.1754L295.128 74.9025L296.417 74.4845L295.437 73.37L253.206 63.9673Z" fill="#F8F7F7"/>
<path d="M85.8349 99.102L99.7441 83.4603L98.8817 83.4603L82.6807 98.6598L84.1526 99.1023L85.8349 99.102Z" fill="#FDFCFC"/>
<path d="M230.488 39.5052L231.467 40.0692L172.591 78.966L172.428 78.8386L230.488 39.5052Z" fill="#F8F7F7"/>
<path d="M155.254 168.194L130.348 168.197L149.743 99.5476" fill="#198E91"/>
<path d="M177.025 165.548L219.124 99.3212L155.102 168.209L177.025 165.548Z" fill="#198E91"/>
<path d="M192.834 160.04L221.823 98.8515L177.482 165.363L192.834 160.04Z" fill="#0A626B"/>
<path d="M135.98 83.2235L135.116 83.2239L138.493 79.134L139.043 79.3861L135.98 83.2235Z" fill="#EDEBEB"/>
<path d="M161.48 75.047L149.664 75.2349L149.903 75.652L161.323 75.4874L161.48 75.047Z" fill="#EDEBEB"/>
<path d="M138.504 79.1309L149.681 75.235L149.91 75.659L139.035 79.3932L138.504 79.1309Z" fill="#EDEBEB"/>
<path d="M92.3363 160.029L8.92578 77.2007L46.0699 87.7973L92.3363 160.029Z" fill="#0A626B"/>
<path d="M172.328 78.9831L172.716 78.6487L161.493 75.0169L161.323 75.4863L172.328 78.9831Z" fill="#F8F7F7"/>
<path d="M108.064 166.076L82.6611 98.6194L46.0273 88.0235L108.064 166.076Z" fill="#0A626B"/>
<path d="M253.327 64.9889L254.526 65.5607L201.158 83.6294L200.52 82.8057L253.327 64.9889Z" fill="#F8F7F7"/>
<path d="M98.5622 84.5545L99.6392 83.4055L200.463 82.7428L201.076 83.6783L98.5622 84.5545Z" fill="#F8F7F7"/>
<path d="M175.765 23.1316L118.722 23.4738L118.473 23.0259L175.765 22.5735L175.765 23.1316Z" fill="white"/>
<path d="M254.347 64.2614L253.353 64.6585L230.712 40.0439L231.501 39.7553L254.347 64.2614Z" fill="#F8F7F7"/>
<path d="M172.734 78.6429L176.534 82.9861L175.872 82.9862L172.312 78.9807L172.734 78.6429Z" fill="#F8F7F7"/>
<path d="M176.18 23.1485L230.403 39.9086L231.365 39.5605L176.468 22.5875L176.18 23.1485Z" fill="#F8F7F7"/>
<path d="M107.983 165.805L107.983 166.424L92.0068 160.464L91.832 159.718L107.983 165.805Z" fill="#FBFBFB"/>
<path d="M63.3785 42.3484L64.3025 42.6326L45.057 65.8181L44.2321 65.8182L63.3785 42.3484Z" fill="#FDFCFC"/>
<path d="M118.034 23.12L118.035 23.6701L64.9642 42.1005L64.1536 41.7849L118.034 23.12Z" fill="#FDFCFC"/>
<path d="M150.463 78.1794L160.856 78.1781L168.662 80.8701L170.833 83.1389L141.016 83.3564L142.85 80.8707L150.463 78.1794Z" fill="#0A626B" stroke="#FBFBFB" stroke-width="0.348237"/>
<path d="M154.985 168.165L177.249 165.276L177.249 165.828L154.985 168.899L154.985 168.165Z" fill="#F8F7F7"/>
<path d="M130.213 168.596L130.008 167.962L107.808 165.733L107.808 166.326L130.213 168.596Z" fill="#FDFCFC"/>
<path d="M154.998 168.946L154.997 168.18L130.315 167.99L130.317 168.567L154.998 168.946Z" fill="#FDFCFC"/>
<path d="M146.242 83.3564L165.203 83.2L160.531 80.9575L151.195 80.9584L146.242 83.3564Z" fill="#0A626B" stroke="#FBFBFB" stroke-width="0.348237"/>
<path d="M193.217 160.301L193.217 159.686L177.354 165.288L177.354 165.818L193.217 160.301Z" fill="#F8F7F7"/>
<path d="M82.6836 98.6392L84.3013 99.0455L85.8479 99.0454L130.675 168.305L129.949 168.305L82.6836 98.6392Z" fill="#FDFCFC"/>
<path d="M6.40234 76.4913L9.014 77.2378L92.2858 159.998L91.6447 159.786L6.40234 76.4913Z" fill="#FDFCFC"/>
<path d="M295.115 74.8887L192.796 160.048L193.628 159.937L296.401 74.4716L295.115 74.8887Z" fill="#F8F7F7"/>
</svg>
