<svg width="244" height="336" viewBox="0 0 244 336" fill="none" xmlns="http://www.w3.org/2000/svg">
<path d="M187.805 235.018L198.408 221.817L238.048 250.94L232.267 260.869L187.805 235.018Z" fill="#EF8901"/>
<path d="M232.209 260.835L227.583 265.375L191.351 242.331L196.002 237.55L232.209 260.835Z" fill="#CF6D02"/>
<path d="M198.233 221.77L197.027 215.078L238.543 246.067L237.993 251.084L198.233 221.77Z" fill="#E1870A"/>
<path d="M158.871 175.977L152.339 179.007L198.259 221.668L197.096 214.871L158.871 175.977Z" fill="#EF8901"/>
<path d="M143.164 185.735L139.621 191.819L174.853 226.436L184.177 225.058L143.164 185.735Z" fill="#CF6D02"/>
<path d="M190.757 231.367L198.258 221.666L152.482 178.921L143.109 185.714L190.757 231.367Z" fill="#FE9400"/>
<path d="M99.0039 328.661L106.152 330.419L137.292 286.687L129.282 282.024L99.0039 328.661Z" fill="#CF6D02"/>
<path d="M99.0116 328.504L97.4127 322.418L115.76 284.681L129.312 281.98L99.0116 328.504Z" fill="#E18000"/>
<path d="M115.168 285.05L78.3438 269.19L129.338 281.984L115.168 285.05Z" fill="#E1870A"/>
<path d="M129.3 281.987L134.116 270.197L82.2477 262.791L78.4375 269.335L129.3 281.987Z" fill="#FE9400"/>
<path d="M165.164 307.599L169.824 262.378L158.571 272.843L157.48 309.778L165.164 307.599Z" fill="#D16F02"/>
<path d="M184.023 224.997L129.258 282.025L137.248 286.677L190.739 231.447L184.023 224.997Z" fill="#EF8901"/>
<path d="M157.605 309.727L158.597 272.694L152.265 278.527L152.971 302.875L157.605 309.727Z" fill="#EF8901"/>
<path d="M174.866 226.382L184.005 225.008L129.225 282.056L134.131 270.229" fill="#E1870A"/>
<path d="M143.175 287.611L137.192 286.576L106.227 330.328L112.118 329.642" fill="#C75E06"/>
<path d="M190.779 231.324L137.234 286.645L143.116 287.625L196.248 237.665L190.779 231.324Z" fill="#CF6D02"/>
<path d="M139.664 191.859L143.203 185.78L91.3668 181.616L90.466 186.211L139.664 191.859Z" fill="#C75E06"/>
<path d="M91.4514 181.239L8.60744 167.575L4.63281 169.391L90.25 186.369L91.4514 181.239Z" fill="#CF6D02"/>
<path d="M93.9482 170.183L9.51055 162.475L8.77474 167.586L91.4184 181.47L93.9482 170.183Z" fill="#EF8901"/>
<path d="M9.5936 162.533L6.56126 159.153L97.1088 164.329L93.7807 170.045L9.5936 162.533Z" fill="#E18000"/>
<path d="M142.978 185.946L131.578 171.435L93.7372 170.242L91.4885 181.498L142.978 185.946Z" fill="#E1870A"/>
<path d="M8.8528 167.631L9.55323 162.477L6.55817 159.14L3.80211 162.25L2.92995 167.081L4.64572 169.383L8.8528 167.631Z" fill="#FE9400"/>
<path d="M107.106 46.3665L106.383 40.2043L141.743 53.2448L143.097 63.0584L107.106 46.3665Z" fill="#EF8901"/>
<path d="M155.451 58.1043L159.678 61.272L176.381 102.263L172.845 104.825L155.451 58.1043Z" fill="#CF6D02"/>
<path d="M141.234 49.1966L141.847 53.3464L106.379 40.231L111.912 37.8301L141.234 49.1966Z" fill="#C75E06"/>
<path d="M226.193 78.09L178.348 123.945L171.336 120.754L221.45 75.3289L226.193 78.09Z" fill="#CF6D02"/>
<path d="M143.092 63.0286L155.601 58.3314L172.864 104.979L159.446 118.856L143.092 63.0286Z" fill="#EF8901"/>
<path d="M152.592 179.162L159.078 175.97L178.482 123.873L171.313 120.511L152.592 179.162Z" fill="#E1870A"/>
<path d="M162.926 112.273L142.999 186.068L131.53 171.386L162.926 112.273Z" fill="#FE9400"/>
<path d="M162.868 112.451L171.441 120.484L152.882 178.831L142.901 185.884L162.868 112.451Z" fill="#EF8901"/>
<path d="M220.087 70.2084L221.506 75.3069L171.461 120.689L162.678 112.335L220.087 70.2084Z" fill="#FE9400"/>
<path d="M135.484 7.54575L139.09 3.31327L144.672 3.93986L140.143 10.2659L135.484 7.54575Z" fill="#EF8901"/>
<path d="M156.879 44.8987L144.619 3.9442L140.129 10.2538L155.607 58.3529L156.879 44.8987Z" fill="#CF6D02"/>
<path d="M135.473 7.53661L140.14 10.2538L155.622 58.3546L143.088 63.061L135.473 7.53661Z" fill="#FE9400"/>
<path d="M221.477 75.3837L226.191 78.1032L225.071 72.4339L220.095 70.2019L221.477 75.3837Z" fill="#C75E06"/>
<path d="M159.972 61.5605L196.4 21.0609L196.198 17.2645L155.593 58.3488L159.972 61.5605Z" fill="#C75E06"/>
<path d="M196.351 17.5425L190.166 15.593L156.691 44.2992L155.612 58.3483L196.351 17.5425Z" fill="#EF8901"/>
</svg>
