<svg width="600" height="195" viewBox="0 0 600 195" fill="none" xmlns="http://www.w3.org/2000/svg">
<path d="M331.74 82.4468L395.035 106.381L377.444 14.8646L331.74 82.4468Z" fill="#754C24"/>
<path d="M208.639 194.889H377.441L267.188 134.01L208.639 194.889Z" fill="#603813"/>
<path d="M220.835 56.882L267.189 134.01L331.738 82.4469L291.016 18.7514L220.835 56.882Z" fill="#8C6239"/>
<path d="M150.22 107.145L267.188 134.01L220.834 56.8818L150.22 107.145Z" fill="#A67C52"/>
<path d="M67.0444 137.909L93.3319 194.888H208.641L150.222 107.145L67.0444 137.909Z" fill="#8C6239"/>
<path d="M0.953353 194.889H93.332L67.0446 137.909L0.953353 194.889Z" fill="#A67C52"/>
<path d="M291.015 18.7513L331.737 82.4468L377.441 14.8646L291.015 18.7513Z" fill="#A67C52"/>
<path d="M267.191 134.01L377.444 194.889L395.035 106.381L267.191 134.01Z" fill="#754C24"/>
<path d="M150.22 107.145L208.639 194.888L267.188 134.009L150.22 107.145Z" fill="#754C24"/>
<path d="M267.191 134.01L395.035 106.381L331.74 82.4465L267.191 134.01Z" fill="#603813"/>
<path d="M470.437 149.256L488.128 194.638H599.32L569.697 127.693L470.437 149.256Z" fill="#603813"/>
<path d="M376.942 194.637H488.129L470.437 149.255L376.942 194.637Z" fill="#754C24"/>
<path d="M395.034 106.381L470.437 149.256L527.086 55.4827L465.925 0.823486L395.034 106.381Z" fill="#8C6239"/>
<path d="M470.438 149.256L569.699 127.693L527.087 55.4827L470.438 149.256Z" fill="#A67C52"/>
<path d="M376.942 15.0549L395.034 106.381L465.926 0.823486L376.942 15.0549Z" fill="#A67C52"/>
<path d="M395.034 106.381L376.942 194.638L470.438 149.256L395.034 106.381Z" fill="#603813"/>
</svg>
