<svg width="758" height="246" viewBox="0 0 758 246" fill="none" xmlns="http://www.w3.org/2000/svg">
<path d="M338.957 103.35L258.805 133.65L281.081 17.7933L338.957 103.35Z" fill="#754C24"/>
<path d="M494.837 245.698H281.078L420.695 168.627L494.837 245.698Z" fill="#603813"/>
<path d="M479.396 70.9857L420.697 168.627L338.957 103.35L390.525 22.7136L479.396 70.9857Z" fill="#8C6239"/>
<path d="M568.815 134.617L420.695 168.627L479.395 70.9858L568.815 134.617Z" fill="#A67C52"/>
<path d="M674.147 173.564L640.858 245.698H494.84L568.817 134.617L674.147 173.564Z" fill="#8C6239"/>
<path d="M757.837 245.698H640.855L674.144 173.564L757.837 245.698Z" fill="#A67C52"/>
<path d="M390.522 22.7137L338.955 103.35L281.078 17.7933L390.522 22.7137Z" fill="#A67C52"/>
<path d="M420.697 168.627L281.081 245.698L258.805 133.65L420.697 168.627Z" fill="#754C24"/>
<path d="M568.815 134.617L494.837 245.698L420.695 168.627L568.815 134.617Z" fill="#754C24"/>
<path d="M420.697 168.627L258.805 133.65L338.957 103.35L420.697 168.627Z" fill="#603813"/>
<path d="M163.318 187.929L140.915 245.381H0.109375L37.6216 160.631L163.318 187.929Z" fill="#603813"/>
<path d="M281.713 245.381H140.914L163.317 187.928L281.713 245.381Z" fill="#754C24"/>
<path d="M258.803 133.651L163.318 187.929L91.582 69.2152L169.032 0.0185547L258.803 133.651Z" fill="#8C6239"/>
<path d="M163.318 187.928L37.6211 160.631L91.5818 69.2148L163.318 187.928Z" fill="#A67C52"/>
<path d="M281.714 18.0351L258.803 133.651L169.031 0.0185547L281.714 18.0351Z" fill="#A67C52"/>
<path d="M258.805 133.65L281.716 245.38L163.32 187.928L258.805 133.65Z" fill="#603813"/>
</svg>
