<svg width="495" height="495" viewBox="0 0 495 495" fill="none" xmlns="http://www.w3.org/2000/svg">
<path d="M279.828 255.834L177.342 3.87413L188.404 7.10429L279.828 255.834Z" fill="#8B52BD"/>
<path d="M71.7218 293.91L82.2022 287.693L91.0892 290.871L92.4624 299.567L84.3024 308.03L73.0139 306.174L71.7218 293.91Z" fill="#BC6DDD"/>
<path d="M217.614 86.4412L215.475 81.026L384.516 111.271L217.614 86.4412Z" fill="#EAB0F5"/>
<path d="M280.39 256.514L177.774 4.16249L171.812 10.6025L280.39 256.514Z" fill="#EAB0F5"/>
<path d="M226.812 135.017L223.977 128.601L90.5748 290.789L226.812 135.017Z" fill="#8B52BD"/>
<path d="M212.789 74.1047L214.133 80.7053L386.324 111.683L212.789 74.1047Z" fill="#8B52BD"/>
<path d="M134.492 480.31L129.341 441.636L120.56 441.067L110.981 479.399L134.492 480.31Z" fill="#8B52BD"/>
<path d="M191.823 394.11L195.701 402.345L188.589 413.599L176.216 392.45L191.823 394.11Z" fill="#EAB0F5"/>
<path d="M135.643 383.941L134.282 411.27L128.703 412.079L114.773 385.49L135.643 383.941Z" fill="#976ADE"/>
<path d="M91.8966 393.144L75.3313 411.554L115.07 420.747L120.648 415.329L91.8966 393.144Z" fill="#8B52BD"/>
<path d="M226.797 134.538L90.7944 290.733L228.299 138.276L226.797 134.538Z" fill="#EAB0F5"/>
<path d="M176.304 392.087L140.06 414.648L143.222 420.129L188.715 413.603L176.304 392.087Z" fill="#8B52BD"/>
<path d="M119.661 374.981L127.977 374.335L135.598 383.989L114.768 385.547" fill="#EB7EFF"/>
<path d="M69.7538 400.662L75.8142 411.96L92.1171 393.348L76.0697 393.211L69.7538 400.662Z" fill="#EAB0F5"/>
<path d="M304.789 99.4601L299.441 98.5851L414.262 262.103L304.789 99.4601Z" fill="#EAB0F5"/>
<path d="M116.769 488.982L127.127 489.823L134.568 480.234L111.229 479.395L116.769 488.982Z" fill="#EAB0F5"/>
<path d="M123.012 417.554L116.692 424.703L122.109 435.447L131.39 435.358L137.423 426.308L132.885 416.752L123.012 417.554Z" fill="#BC6DDD"/>
<path d="M169.805 472.391L160.423 470.696L175.139 456.699L176.682 467.169L169.805 472.391Z" fill="#EB7EFF"/>
<path d="M132.914 416.738L157.292 216.94L162.673 211.033L132.914 416.738Z" fill="#8B52BD"/>
<path d="M162.702 210.748L132.866 416.861L168.555 204.316L162.702 210.748Z" fill="#EAB0F5"/>
<path d="M141.711 431.282L137.46 436.112L160.488 470.727L175.767 456.752L141.711 431.282Z" fill="#976ADE"/>
<path d="M435.201 317.023L416.974 271.818L419.155 268.288L438.794 309.009L435.201 317.023Z" fill="#8B52BD"/>
<path d="M424.651 256.96L466.449 258.54L460.844 269.084L423.081 260.786L424.651 256.96Z" fill="#8B52BD"/>
<path d="M443.059 303.415L416.333 264.916L419.69 258.595L458.533 278.246L443.059 303.415Z" fill="#976ADE"/>
<path d="M466.417 268.647L460.492 269.072L466.459 258.471L468.529 264.676L466.417 268.647Z" fill="#EAB0F5"/>
<path d="M412.302 278.79L414.423 271.757L432.808 321.444L426.622 333.082L412.302 278.79Z" fill="#976ADE"/>
<path d="M483.875 233.913L427.487 249.664L422.847 254.882L472.323 248.933L483.875 233.913Z" fill="#976ADE"/>
<path d="M435.913 330.723L432.837 321.315L426.623 333.011L433.286 335.669L435.913 330.723Z" fill="#EB7EFF"/>
<path d="M486.79 240.698L481.477 248.372L472.225 248.941L483.85 233.902L486.79 240.698Z" fill="#EB7EFF"/>
<path d="M442.972 303.298L458.433 278.343L464.419 292.737L458.864 302.398L442.972 303.298Z" fill="#EB7EFF"/>
<path d="M90.3476 103.413L92.1294 105.27L188.979 47.4744L185.752 41.8383L90.3476 103.413Z" fill="#EAB0F5"/>
<path d="M61.3767 149.409L89.9717 100.573L90.5862 102.725L92.5365 104.978L61.3767 149.409Z" fill="#976ADE"/>
<path d="M411.834 269.849L414.528 266.121L418.067 259.732L419.16 255.463L416.774 257.472L412.637 265.157L411.834 269.849Z" fill="#BC6DDD"/>
<path d="M441.588 313.623L438.796 309.008L435.18 317.014L439.827 317.078L441.588 313.623Z" fill="#EAB0F5"/>
<path d="M185.8 41.8921L90.7325 103.223L89.946 100.481L182.766 35.4358L185.8 41.8921Z" fill="#8B52BD"/>
<path d="M414.305 262.054L304.844 99.4303L312.478 100.578L414.305 262.054Z" fill="#8B52BD"/>
<path d="M440.942 194.601L432.126 199.319L420.398 191.771L441.54 179.796L440.942 194.601Z" fill="#EB7EFF"/>
<path d="M406.238 122.565L407.098 116.301L482.516 109.788L478.92 136.816L406.238 122.565Z" fill="#8B52BD"/>
<path d="M344.571 193.794L346.685 177.289L365.004 192.487L352.413 198.974L344.571 193.794Z" fill="#EAB0F5"/>
<path d="M388.205 130.644L384.056 126.522L346.719 177.389L365.078 192.685L388.205 130.644Z" fill="#8B52BD"/>
<path d="M420.546 191.819L441.543 179.867L402.282 128.175L393.734 132.029L420.546 191.819Z" fill="#976ADE"/>
<path d="M472.592 81.4572L456.774 60.1326L400.688 100.539L406.232 105.413L472.592 81.4572Z" fill="#976ADE"/>
<path d="M215.257 323.469L269.55 280.82L267.161 272.496L199.595 297.047L215.257 323.469Z" fill="#976ADE"/>
<path d="M334.26 118.286L379.572 114.539L379.512 119.344L337.339 137.11L334.26 118.286Z" fill="#976ADE"/>
<path d="M394.159 76.4848L359.422 97.0998L358.408 72.9538L374.167 64.5502L394.159 76.4848Z" fill="#EAB0F5"/>
<path d="M306.966 274.453L303.85 280.789L359.756 335.322L379.893 304.52L306.966 274.453Z" fill="#976ADE"/>
<path d="M359.377 96.6435L394.042 76.3434L391.617 101.918L384.257 106.607" fill="#8B52BD"/>
<path d="M482.235 110.111L478.457 136.729L488.355 131.442L490.682 121.413" fill="#EAB0F5"/>
<path d="M292.443 255.609L279.983 255.726L274.839 265.353L279.735 276.69L291.975 276.591L297.21 266.956L292.443 255.609Z" fill="#BC6DDD"/>
<path d="M413.068 209.665L382.767 206.485L392.296 246.045L417.187 231.69L413.068 209.665Z" fill="#EAB0F5"/>
<path d="M275.592 161.466L319.136 167.615L294.863 244.98L286.061 245.045L275.592 161.466Z" fill="#976ADE"/>
<path d="M456.423 60.0993L472.473 81.4722L481.509 66.7014L474.52 55.8046L456.423 60.0993Z" fill="#EB7EFF"/>
<path d="M392.679 245.985L306.623 259.544L303.638 252.191L382.855 206.864L392.679 245.985Z" fill="#8B52BD"/>
<path d="M379.853 304.454L398.016 324.42L387.146 341.027L359.755 335.399L379.853 304.454Z" fill="#EB7EFF"/>
<path d="M196.691 238.992L266.423 259.241L270.589 251.522L212.632 205.653L196.691 238.992Z" fill="#8B52BD"/>
<path d="M187.604 207.353L179.625 222.058L196.673 238.962L212.392 206.053L187.604 207.353Z" fill="#EAB0F5"/>
<path d="M319.06 168.025L275.287 161.835L291.63 139.981L311.683 142.318L319.06 168.025Z" fill="#EB7EFF"/>
<path d="M160.122 260.516L173.134 263.482L176.154 274.009L165.823 285.08L160.122 260.516Z" fill="#EB7EFF"/>
<path d="M21.1976 203.833L38.2305 213.227L10.9991 231.438L7.85621 213.738L21.1976 203.833Z" fill="#EB7EFF"/>
<path d="M68.4492 311.814L33.9056 392.414L67.0964 402.061L81.8246 314.813L68.4492 311.814Z" fill="#976ADE"/>
<path d="M118.165 205.041L92.5109 197.657L81.1438 278.664L93.0759 282.3L118.165 205.041Z" fill="#8B52BD"/>
<path d="M99.4934 298.357L97.642 286.94L160.386 260.633L165.846 285.089L99.4934 298.357Z" fill="#976ADE"/>
<path d="M76.4755 280.86L64.6799 287.949L11.1477 231.391L38.0248 213.254L76.4755 280.86Z" fill="#976ADE"/>
<path d="M92.6925 197.378L103.763 183.819L115.257 186.861L118.161 205.245L92.6925 197.378Z" fill="#EAB0F5"/>
<path d="M395.178 106.359L385.038 111.2L384.277 118.816L391.351 125.875L400.825 122.25L402.212 112.122L395.178 106.359Z" fill="#BC6DDD"/>
<path d="M337.66 136.775L334.418 118.282L325.867 126.27L327.075 132.512L337.66 136.775Z" fill="#EB7EFF"/>
<path d="M33.7481 392.497L36.9556 413.602L52.7974 418.222L66.873 402.075L33.7481 392.497Z" fill="#EB7EFF"/>
</svg>
