<svg width="144" height="376" viewBox="0 0 144 376" fill="none" xmlns="http://www.w3.org/2000/svg">
<path d="M66.4141 288.876L42.7936 282.613L22.5497 348.007L45.9996 354.339L66.4141 288.876Z" fill="#77BFC5"/>
<path d="M45.9686 354.339L51.172 353.288L69.4531 289.85L66.3846 288.866L45.9686 354.339Z" fill="#467A7D"/>
<path d="M88.4648 171.123L65.0077 166.173L42.7869 282.633L66.4508 288.925L88.4648 171.123Z" fill="#8ED0D3"/>
<path d="M98.4215 95.585L101.324 99.1793L91.884 173.866L88.3618 171.214L98.4215 95.585Z" fill="#5D989E"/>
<path d="M69.4488 289.887L66.3554 289L88.3695 171.223L91.8984 173.862L69.4488 289.887Z" fill="#4F8B92"/>
<path d="M119.981 240.332L131.812 242.852L91.2698 340.903L80.6846 338.496L119.981 240.332Z" fill="#4F8B92"/>
<path d="M131.629 164.53L119.603 155.091L108.643 231.955L119.998 240.374L131.629 164.53Z" fill="#77BFC5"/>
<path d="M108.643 231.954L107.077 226.618L117.061 152.295L119.633 155.142L108.643 231.954Z" fill="#5D989E"/>
<path d="M80.6865 338.391L70.4785 329.804L108.63 231.984L120.027 240.381L80.6865 338.391Z" fill="#8ED0D3"/>
<path d="M33.48 365.183L70.4907 329.872L80.7344 338.365L43.4349 372.978L33.48 365.183Z" fill="#77BFC5"/>
<path d="M70.4768 329.871L68.2768 324.269L107.079 226.639L108.648 231.999L70.4768 329.871Z" fill="#4F8B92"/>
<path d="M30.64 359.724L33.475 365.234L70.4883 329.88L68.2826 324.29L30.64 359.724Z" fill="#467A7D"/>
<path d="M43.4461 372.943L80.7616 338.39L91.3086 340.704L52.2793 375.889L43.4461 372.943Z" fill="#467A7D"/>
<path d="M21.7789 371.312L4.72079 374.825L18.8416 290.231H37.8398L21.7789 371.312Z" fill="#77BFC5"/>
<path d="M18.6728 290.232L28.1601 133.07L48.9062 132.099L37.8638 290.233L18.6728 290.232Z" fill="#8ED0D3"/>
<path d="M28.2461 6.53779L23.4518 3.79956L23.9861 131.733L28.2228 133.326L28.2461 6.53779Z" fill="#5D989E"/>
<path d="M23.9814 131.723L14.8636 288.686L18.8301 290.278L28.2109 133.283L23.9814 131.723Z" fill="#4F8B92"/>
<path d="M4.72221 374.825L0.636307 371.03L14.8594 288.667L18.8477 290.236L4.72221 374.825Z" fill="#467A7D"/>
</svg>
