<svg width="421" height="386" viewBox="0 0 421 386" fill="none" xmlns="http://www.w3.org/2000/svg">
<path d="M180.474 210.724L176.275 230.973L257.224 239.296L241.316 203.753L180.474 210.724Z" fill="#E08FAF"/>
<path d="M237.602 249.931L250.754 238.563L175.664 231.011L181.493 242.976L237.602 249.931Z" fill="#B36C86"/>
<path d="M155.119 229.936L150.459 236.227L158.471 248.181L181.893 243.125L155.119 229.936Z" fill="#904664"/>
<path d="M201.074 256.145L208.09 245.579L238.711 249.374L221.745 274.657L214.45 276.634L201.074 256.145Z" fill="#EE99BB"/>
<path d="M176.135 231.943L182.267 243.453L114.054 209.793L109.262 195.946L176.135 231.943Z" fill="#E08FAF"/>
<path d="M74.8699 291.799L63.3828 279.883L80.0452 270.977L92.0105 290.257L74.8699 291.799Z" fill="#F5A2B0"/>
<path d="M133.704 265.146L98.9239 232.524L84.8606 234.783L79.6196 270.6L91.7891 290.094L133.704 265.146Z" fill="#F1778C"/>
<path d="M91.7401 289.913L74.2033 291.557L100.277 305.749L91.7401 289.913Z" fill="#D86578"/>
<path d="M109.008 143.539L85.9625 162.182L72.1049 151.393L73.0039 122.113L109.008 143.539Z" fill="#EE99BB"/>
<path d="M146.891 236.847L148.395 271.844L127.699 261.008L117.435 228.346L146.891 236.847Z" fill="#EE99BB"/>
<path d="M171.633 239.87L161.951 302.979L152.755 305.278L162.593 237.963L171.633 239.87Z" fill="#904664"/>
<path d="M57.3985 168.605L72.4741 151.823L33.8774 171.653" fill="#BB4558"/>
<path d="M108.834 143.69L72.5347 121.988L79.1401 119.474L112.319 140.233L108.834 143.69Z" fill="#B36C86"/>
<path d="M133.632 265.422L98.7743 232.725L114.122 209.702L127.799 216.866" fill="#DD5B6E"/>
<path d="M114.252 210.234L98.6738 233.338L80.8661 194.873L110.391 196.179L114.252 210.234Z" fill="#BB4558"/>
<path d="M81.1312 194.993L33.8483 177.502L32.2812 152.702L81.1312 194.993Z" fill="#F5A2B0"/>
<path d="M113.358 158.689L81.0319 194.965L110.63 196.182L119.629 186.761L113.358 158.689Z" fill="#D86578"/>
<path d="M113.36 158.854L118.61 127.718L93.9415 109.291L69.0335 126.677L113.36 158.854Z" fill="#D86578"/>
<path d="M69.1221 126.739L32.2954 152.639L36.2744 120.532L63.429 109.092L69.1221 126.739Z" fill="#F5A2B0"/>
<path d="M113.448 158.802L81.0567 194.948L32.2491 152.674L69.1797 126.64L113.448 158.802Z" fill="#F1778C"/>
<path d="M63.1065 109.305L69.3196 126.806L93.8721 109.729L63.1065 109.305Z" fill="#BB4558"/>
<path d="M81.1027 194.964L33.8098 177.298L15.1263 195.055L81.1027 194.964Z" fill="#F1778C"/>
<path d="M80.1621 271.012L98.9956 233.492L35.4708 274.227L63.6269 279.757L80.1621 271.012Z" fill="#D86578"/>
<path d="M3.1058 236.195L28.8244 233.54L14.9766 194.789L3.1058 236.195Z" fill="#DD5B6E"/>
<path d="M14.8805 194.719L28.6789 233.189L68.0672 255.417L81.1361 194.935L14.8805 194.719Z" fill="#D86578"/>
<path d="M67.9057 255.569L99.0216 233.255L80.918 194.972L67.9057 255.569Z" fill="#DD5B6E"/>
<path d="M141.643 292.252L144.328 332.401L183.431 322.619L182.069 279.307L157.091 261.235L141.643 292.252Z" fill="#F1778C"/>
<path d="M133.779 264.875L123.153 302.256L141.508 292.93L156.773 261.907L133.779 264.875Z" fill="#D86578"/>
<path d="M158.838 248.308L157.141 262.014L133.585 265.404L127.746 216.789L143.395 224.239L158.838 248.308Z" fill="#BB4558"/>
<path d="M174.522 244.405L201.016 256.023L181.847 279.586L156.834 261.86L158.531 248.168L174.522 244.405Z" fill="#F5A2B0"/>
<path d="M145.08 332.825L122.511 328.899L123.152 302.246L141.548 292.52L145.08 332.825Z" fill="#F5A2B0"/>
<path d="M332.451 141.472L325.546 173.944L408.176 186.611L413.071 147.134L332.451 141.472Z" fill="#E08FAF"/>
<path d="M413.452 147.511L408.408 135.578L339.32 126.881L332.669 141.892L413.452 147.511Z" fill="#B36C86"/>
<path d="M325.222 173.712L255.498 235.305L263.676 239.974L336.369 175.093L325.222 173.712Z" fill="#904664"/>
<path d="M240.895 204.813L303.896 140.051L333.006 141.409L325.994 173.219L254.772 236.087L240.895 204.813Z" fill="#EE99BB"/>
<path d="M308.835 84.4924L312.683 80.8589L339.776 126.67L332.732 142.427L308.835 84.4924Z" fill="#904664"/>
<path d="M332.754 141.715L304.013 140.494L285.911 102.887L308.944 84.5811L332.754 141.715Z" fill="#E08FAF"/>
<path d="M193.552 35.7077L206.513 15.3025L251.081 16.4061L187.112 57.2827L193.552 35.7077Z" fill="#F5A2B0"/>
<path d="M238.399 19.6408L250.828 16.4845L280.483 38.4087L264.397 52.9816L238.399 19.6408Z" fill="#DD5B6E"/>
<path d="M264.978 52.9857L238.114 19.3177L186.549 57.582L190.712 94.6354L233.994 113.186L264.978 52.9857Z" fill="#F1778C"/>
<path d="M264.938 52.991L233.963 112.631L272.262 93.3064L264.938 52.991Z" fill="#D86578"/>
<path d="M309.004 84.5518L285.959 103.195L272.101 92.4053L273 63.126L309.004 84.5518Z" fill="#EE99BB"/>
<path d="M375.813 181.441L350.892 292.902L333.02 273.893L345.07 176.663L375.813 181.441Z" fill="#EE99BB"/>
<path d="M385.035 182.542L361.144 286.765L350.778 292.451L375.735 181.389L385.035 182.542Z" fill="#904664"/>
<path d="M257.395 109.618L272.47 92.8361L233.874 112.666" fill="#BB4558"/>
<path d="M308.83 84.7025L272.531 63.0009L279.136 60.4868L312.315 81.2461L308.83 84.7025Z" fill="#B36C86"/>
<path d="M272.107 92.8068L264.793 52.8827L280.108 38.3225" fill="#BB4558"/>
<path d="M321.782 260.359L309.385 279.075L287.192 241.758L313.125 250.382L321.782 260.359Z" fill="#BB4558"/>
<path d="M266.942 336.737L248.786 310.357L299.621 312.822L266.942 336.737Z" fill="#BB4558"/>
<path d="M249.249 310.896L224.503 306.42L221.207 274.701L235.616 251.275L249.249 310.896Z" fill="#F5A2B0"/>
<path d="M309.215 278.682L298.24 313.688L328.996 294.557L309.215 278.682Z" fill="#D86578"/>
<path d="M325.856 276.061L345.649 261.032L353.479 234.078L320.917 260.331L325.856 276.061Z" fill="#B36C86"/>
<path d="M354.113 233.602L321.278 260.231L312.287 250.229L339.525 225.016L354.113 233.602Z" fill="#E08FAF"/>
<path d="M309.444 279.052L298.686 312.925L249.047 310.584L241.69 280.172L235.688 250.71L287.27 241.283L309.444 279.052Z" fill="#F1778C"/>
<path d="M221.368 274.884L199.996 254.767L211.304 314.772L224.436 306.287L221.368 274.884Z" fill="#BB4558"/>
<path d="M347.159 347.2L352.578 373.757L373.179 353.399L359.569 317.347L347.159 347.2Z" fill="#D86578"/>
<path d="M183.089 322.681L210.88 311.795L200.877 256.117L181.789 279.608L183.089 322.681Z" fill="#DD5B6E"/>
<path d="M305.878 333.114L328.716 294.647L298.567 313.404L266.579 336.979L305.878 333.114Z" fill="#DD5B6E"/>
<path d="M350.117 292.135L372.927 353.086L376.896 304.837L360.733 286.466L350.117 292.135Z" fill="#BB4558"/>
<path d="M321.641 259.975L327.472 275.591L328.751 294.701L309.121 278.716L321.641 259.975Z" fill="#DD5B6E"/>
<path d="M234.977 251.503L287.71 241.499L252.15 231.05L234.977 251.503Z" fill="#DD5B6E"/>
<path d="M251.766 231.359L287.532 241.815L312.28 250.324L284.365 227.228L251.766 231.359Z" fill="#D86578"/>
<path d="M251.074 334.488L267.329 336.503L249.697 310.813L224.121 306.164L251.074 334.488Z" fill="#DD5B6E"/>
<path d="M309.186 336.965L274.164 336.111L305.563 333.123L312.845 321.577L309.186 336.965Z" fill="#BB4558"/>
<path d="M309.164 336.695L347.166 347.602L359.578 317.318L349.892 291.807L328.776 291.303L328.326 294.934L312.836 321.387L309.164 336.695Z" fill="#F1778C"/>
<path d="M315.602 374.628L290.487 363.876L274.615 336.137L309.428 336.57L315.602 374.628Z" fill="#F5A2B0"/>
<path d="M309.192 336.637L347.227 347.441L352.589 374.031L315.452 374.447L309.192 336.637Z" fill="#DD5B6E"/>
<path d="M350.139 292.088L328.487 291.466L327.194 274.895L333.425 270.25L332.976 273.892L350.139 292.088Z" fill="#BB4558"/>
<path d="M182.688 322.459L198.406 349.088L216.059 337.831L224.382 306.375L182.688 322.459Z" fill="#D86578"/>
</svg>
