<svg width="211" height="253" viewBox="0 0 211 253" fill="none" xmlns="http://www.w3.org/2000/svg">
<path d="M44.1719 141.288L45.2424 126.88L3.55918 121.97L1.385 131.53L44.1719 141.288Z" fill="#EF8901"/>
<path d="M1.44056 131.541L1.68331 137.067L37.7015 143.785L37.5836 138.095L1.44056 131.541Z" fill="#CF6D02"/>
<path d="M45.379 126.952L50.0267 123.48L6.08696 118.641L3.50937 122.091L45.379 126.952Z" fill="#E1870A"/>
<path d="M96.5942 121.301L98.9052 126.994L45.4222 126.874L50.1044 123.31L96.5942 121.301Z" fill="#EF8901"/>
<path d="M100.713 136.534L99.3809 142.391L57.2485 143.475L52.2343 137.188L100.713 136.534Z" fill="#CF6D02"/>
<path d="M44.4544 137.291L45.4224 126.872L98.8649 126.857L100.757 136.551L44.4544 137.291Z" fill="#FE9400"/>
<path d="M45.0508 251.405L39.568 248.34L45.6026 202.93L53.3142 204.684L45.0508 251.405Z" fill="#CF6D02"/>
<path d="M45.1382 251.301L49.6789 248.436L60.2029 214.213L53.3211 204.638L45.1382 251.301Z" fill="#E18000"/>
<path d="M60.3571 214.789L92.5625 226.334L53.3025 204.627L60.3571 214.789Z" fill="#E1870A"/>
<path d="M53.3269 204.651L57.1864 194.492L93.8549 220.069L92.4219 226.369L53.3269 204.651Z" fill="#FE9400"/>
<path d="M16.0387 199.747L39.4594 168.824L40.3863 181.904L19.5637 205.58L16.0387 199.747Z" fill="#D16F02"/>
<path d="M52.365 137.239L53.3281 204.698L45.6349 202.949L44.4203 137.353L52.365 137.239Z" fill="#EF8901"/>
<path d="M19.5172 205.476L40.4583 181.796L41.012 189.121L26.3968 203.899L19.5172 205.476Z" fill="#EF8901"/>
<path d="M57.2708 143.433L52.3694 137.256L53.3302 204.736L57.1553 194.502" fill="#E1870A"/>
<path d="M41.3943 200.08L45.7286 202.917L39.5742 248.239L36.2981 244.381" fill="#C75E06"/>
<path d="M44.4685 137.253L45.6641 202.938L41.4239 200.125L37.3651 138.026L44.4685 137.253Z" fill="#CF6D02"/>
<path d="M99.3309 142.391L100.662 136.538L135.423 164.119L133.31 167.51L99.3309 142.391Z" fill="#C75E06"/>
<path d="M135.591 163.836L195.226 203.543L196.648 206.99L133.353 167.736L135.591 163.836Z" fill="#CF6D02"/>
<path d="M197.545 199.823L201.405 199.48L141.905 149.992L140.654 155.496L197.545 199.823Z" fill="#E18000"/>
<path d="M142.403 150.159L117.658 128.336L116.304 134.288L140.454 155.589L142.403 150.159Z" fill="#CF6D02"/>
<path d="M100.706 136.774L116.266 134.359L140.567 155.645L135.416 163.976L100.706 136.774Z" fill="#E1870A"/>
<path d="M195.04 203.434L197.605 199.811L201.415 199.473L201.324 203.017L199.056 206.539L196.645 206.976L195.04 203.434Z" fill="#FE9400"/>
<path d="M204.346 70.5838L208.384 67.1603L178.734 54.7096L172.176 60.043L204.346 70.5838Z" fill="#EF8901"/>
<path d="M167.356 49.7618L162.874 49.2768L128.59 65.124L129.305 68.7812L167.356 49.7618Z" fill="#CF6D02"/>
<path d="M181.408 52.4807L178.61 54.7127L208.371 67.1798L206.317 62.4608L181.408 52.4807Z" fill="#C75E06"/>
<path d="M111.586 21.0428L114.737 77.5036L120.969 79.5948L116.152 22.0813L111.586 21.0428Z" fill="#CF6D02"/>
<path d="M172.194 60.0278L167.125 49.8152L129.199 68.8646L129.49 85.3337L172.194 60.0278Z" fill="#EF8901"/>
<path d="M98.6569 126.945L96.4692 121.178L114.695 77.3819L121.124 79.4578L98.6569 126.945Z" fill="#E1870A"/>
<path d="M131.086 79.3444L121.062 79.3648L98.6706 126.568L100.791 136.779L131.086 79.3444Z" fill="#EF8901"/>
<path d="M119.985 19.6805L116.131 22.0347L120.93 79.4809L131.272 79.3827L119.985 19.6805Z" fill="#FE9400"/>
<path d="M209.243 29.8459L209.458 25.106L205.611 22.2471L204.753 28.8302L209.243 29.8459Z" fill="#EF8901"/>
<path d="M174.148 40.6907L205.639 22.2794L204.767 28.8298L167.109 49.824L174.148 40.6907Z" fill="#CF6D02"/>
<path d="M209.258 29.8465L204.764 28.8245L167.103 49.8181L172.182 60.0509L209.258 29.8465Z" fill="#FE9400"/>
<path d="M116.102 22.1005L111.578 21.0525L115.577 18.1678L119.981 19.6728L116.102 22.1005Z" fill="#C75E06"/>
<path d="M162.518 49.2843L163.372 2.81125L165.708 0.560506L167.12 49.8302L162.518 49.2843Z" fill="#C75E06"/>
<path d="M165.451 0.645274L170.444 3.02999L174.615 40.4269L167.109 49.8194L165.451 0.645274Z" fill="#EF8901"/>
</svg>
