<svg width="310" height="190" viewBox="0 0 310 190" fill="none" xmlns="http://www.w3.org/2000/svg">
<path d="M133.237 24.902L116.711 30.5275L14.0055 115.96L89.945 91.12L133.237 24.902Z" fill="#198E91"/>
<path d="M266.492 124.109L304.058 113.872L226.296 91.3593L211.249 106.875L266.492 124.109Z" fill="#2FF7E1"/>
<path d="M275.542 148.363L303.966 113.836L266.428 124.014L246.1 148.367L275.542 148.363Z" fill="#01E0A5"/>
<path d="M155.7 22.1159L180.112 22.1067L226.293 91.3663L155.412 91.3749L155.7 22.1159Z" fill="#0A626B"/>
<path d="M303.977 113.944L226.197 91.344L180.118 22.1171L202.563 24.3434L218.746 30.6887L303.977 113.944Z" fill="#198E91"/>
<path d="M226.303 91.3649L89.844 91.1352L110.294 107.641L211.477 106.965L226.303 91.3649Z" fill="#01E0A5"/>
<path d="M171.623 110.93L160.629 115.099L191.923 167.169L246.061 148.373L171.623 110.93Z" fill="#36BCAD"/>
<path d="M148.96 115.097L134.632 167.986L192.105 167.104L160.622 115.096L148.96 115.097Z" fill="#45B598"/>
<path d="M56.4421 125.597L110.216 107.581L89.876 91.154L13.9776 115.954" fill="#2FF7E1"/>
<path d="M89.904 91.1651L155.447 91.2425L155.777 22.0766L133.145 24.9556L89.904 91.1651Z" fill="#0A626B"/>
<path d="M246.073 148.401L171.638 111.257L174.933 107.212L211.446 106.898L266.421 124.086" fill="#45B598"/>
<path d="M174.94 107.195L134.207 107.439L137.871 111.538L148.935 115.092L160.597 115.11L171.633 111.261L174.94 107.195Z" fill="#0A626B"/>
<path d="M192.195 167.072L134.759 167.786L122.955 174.773L200.434 173.578L192.195 167.072Z" fill="#01E0A5"/>
<path d="M275.628 148.351L200.425 173.586L200.232 173.434L192.078 167.065L246.05 148.355L275.628 148.351Z" fill="#2FF7E1"/>
<path d="M13.9836 115.945L45.6318 150.784L79.4727 150.825L56.3992 125.579L13.9836 115.945Z" fill="#01E0A5"/>
<path d="M137.939 111.608L134.222 107.442L110.136 107.61L56.4175 125.605L79.3987 150.81L137.939 111.608Z" fill="#45B598"/>
<path d="M148.978 115.098L149.061 115.098L135.005 167.777L133.921 167.709L148.978 115.098Z" fill="#F8F7F7"/>
<path d="M211.507 106.918L209.362 106.918L265.922 124.752L266.38 124.082L211.507 106.918Z" fill="#FDFCFC"/>
<path d="M122.356 174.541L133.906 167.688L135.021 167.757L123.89 174.764L123.135 174.804L122.356 174.541Z" fill="#F8F7F7"/>
<path d="M191.45 167.153L192.718 166.829L200.931 173.413L200.411 173.595L199.72 173.595L191.45 167.153Z" fill="white"/>
<path d="M265.907 124.738L266.39 124.093L265.591 123.831L301.418 113.156L304.003 113.907L302.219 115.987L265.907 124.738Z" fill="#FDFCFC"/>
<path d="M246.593 147.782L171.716 111.188L171.519 111.312L245.157 148.647L246.071 148.372L246.593 147.782Z" fill="#FDFCFC"/>
<path d="M45.6175 150.811L45.1197 150.225L78.9498 150.351L79.8984 150.888L46.7496 151.151L45.6175 150.811Z" fill="#F8F7F7"/>
<path d="M275.53 148.41L273.955 148.934L245.126 148.652L246.083 148.361L246.59 147.776L276.166 147.608L275.53 148.41Z" fill="#FDFCFC"/>
<path d="M160.531 115.12L160.66 115.089L192.71 166.823L191.524 167.136L160.531 115.12Z" fill="white"/>
<path d="M89.9134 91.1144L88.5401 91.6148L132.969 24.9842L133.5 24.904L91.2733 91.1141L89.9134 91.1144Z" fill="#F8F7F7"/>
<path d="M109.62 107.814L88.5756 91.5691L89.8975 91.1147L91.272 91.1145L110.844 107.568L110.151 107.568L109.62 107.814Z" fill="#F8F7F7"/>
<path d="M56.4088 125.562L57.1987 126.471L134.243 107.442L133.003 107.442L57.5373 125.241L56.4088 125.562Z" fill="#F8F7F7"/>
<path d="M57.1924 126.452L56.4096 125.555L57.5428 125.244L15.2704 115.517L13.9812 115.935L14.9613 117.05L57.1924 126.452Z" fill="#F8F7F7"/>
<path d="M224.564 91.3176L210.654 106.959L211.517 106.959L227.718 91.7598L226.246 91.3173L224.564 91.3176Z" fill="#FDFCFC"/>
<path d="M79.9067 150.914L78.928 150.35L137.803 111.454L137.966 111.581L79.9067 150.914Z" fill="#F8F7F7"/>
<path d="M155.145 22.226L180.051 22.2229L160.655 90.872" fill="#198E91"/>
<path d="M133.373 24.8715L91.2748 91.0984L155.297 22.2109L133.373 24.8715Z" fill="#198E91"/>
<path d="M117.565 30.3796L88.5759 91.5681L132.917 25.0562L117.565 30.3796Z" fill="#0A626B"/>
<path d="M174.419 107.196L175.283 107.196L171.906 111.286L171.356 111.034L174.419 107.196Z" fill="#EDEBEB"/>
<path d="M148.918 115.373L160.734 115.185L160.496 114.768L149.075 114.932L148.918 115.373Z" fill="#EDEBEB"/>
<path d="M171.894 111.289L160.717 115.185L160.489 114.761L171.364 111.026L171.894 111.289Z" fill="#EDEBEB"/>
<path d="M218.058 30.3903L301.469 113.219L264.325 102.622L218.058 30.3903Z" fill="#0A626B"/>
<path d="M138.067 111.437L137.678 111.771L148.902 115.403L149.072 114.933L138.067 111.437Z" fill="#F8F7F7"/>
<path d="M202.335 24.3433L227.737 91.8002L264.371 102.396L202.335 24.3433Z" fill="#0A626B"/>
<path d="M57.0672 125.431L55.8681 124.859L109.237 106.79L109.875 107.614L57.0672 125.431Z" fill="#F8F7F7"/>
<path d="M211.836 105.865L210.759 107.014L109.936 107.677L109.322 106.741L211.836 105.865Z" fill="#F8F7F7"/>
<path d="M134.633 167.288L191.677 166.946L191.926 167.394L134.633 167.846L134.633 167.288Z" fill="white"/>
<path d="M56.048 126.158L57.0419 125.761L79.6824 150.376L78.8936 150.664L56.048 126.158Z" fill="#F8F7F7"/>
<path d="M137.665 111.777L133.864 107.434L134.526 107.434L138.086 111.439L137.665 111.777Z" fill="#F8F7F7"/>
<path d="M134.219 167.271L79.9955 150.511L79.0335 150.859L133.93 167.832L134.219 167.271Z" fill="#F8F7F7"/>
<path d="M202.412 24.6144L202.412 23.9955L218.388 29.9555L218.562 30.7013L202.412 24.6144Z" fill="#FBFBFB"/>
<path d="M247.016 148.071L246.092 147.787L265.338 124.602L266.162 124.601L247.016 148.071Z" fill="#FDFCFC"/>
<path d="M192.364 167.3L192.364 166.75L245.434 148.319L246.245 148.635L192.364 167.3Z" fill="#FDFCFC"/>
<path d="M159.931 112.24L149.538 112.242L141.733 109.55L139.562 107.281L169.379 107.063L167.544 109.549L159.931 112.24Z" fill="#0A626B" stroke="#FBFBFB" stroke-width="0.348237"/>
<path d="M155.413 22.2545L133.15 25.1435L133.15 24.5914L155.413 21.5203L155.413 22.2545Z" fill="#F8F7F7"/>
<path d="M180.186 21.824L180.391 22.4582L202.59 24.6869L202.59 24.0938L180.186 21.824Z" fill="#FDFCFC"/>
<path d="M155.4 21.4739L155.402 22.2392L180.084 22.43L180.082 21.8529L155.4 21.4739Z" fill="#FDFCFC"/>
<path d="M164.152 107.063L145.191 107.22L149.864 109.462L159.2 109.461L164.152 107.063Z" fill="#0A626B" stroke="#FBFBFB" stroke-width="0.348237"/>
<path d="M117.181 30.1181L117.182 30.7333L133.044 25.1317L133.044 24.6014L117.181 30.1181Z" fill="#F8F7F7"/>
<path d="M227.715 91.7804L226.097 91.3741L224.551 91.3742L179.724 22.115L180.449 22.1151L227.715 91.7804Z" fill="#FDFCFC"/>
<path d="M303.996 113.928L301.384 113.182L218.113 30.4221L218.754 30.6339L303.996 113.928Z" fill="#FDFCFC"/>
<path d="M15.2838 115.53L117.602 30.3713L116.77 30.4817L13.9972 115.948L15.2838 115.53Z" fill="#F8F7F7"/>
</svg>
