<svg width="276" height="329" viewBox="0 0 276 329" fill="none" xmlns="http://www.w3.org/2000/svg">
<path d="M138.19 279.972L151.943 285.527L152.794 265.736L139.218 269.112L138.19 279.972Z" fill="#0BAB5C"/>
<path d="M168.262 297.042L148.712 288.317L170.455 255.371L174.583 256.522L168.262 297.042Z" fill="#0BAB5C"/>
<path d="M157.549 279.206L152.907 267.05L146.696 272.75L148.503 278.787L157.549 279.206Z" fill="#0BAB5C"/>
<path d="M152.605 265.712L194.695 270.917L195.106 274.758L151.951 285.337L152.605 265.712Z" fill="#0BAB5C"/>
<path d="M147.381 287.412L141.562 275.631L148.877 269.318L160.939 275.629L147.381 287.412Z" fill="#0BAB5C"/>
<path d="M170.919 276.785L141.005 257.95L138.019 261.003L158.986 290.246L170.919 276.785Z" fill="#0BAB5C"/>
<path d="M170.923 292.809L176.63 286.999L170.921 276.8L159.148 290.091L170.923 292.809Z" fill="#0BAB5C"/>
<path d="M10.0234 144.033L15.4095 144.033L37.1606 228.576L10.0234 144.033Z" fill="#21ED94"/>
<path d="M38.8256 221.534L36.1282 225.298L15.3758 143.984L18.7676 139.573L38.8256 221.534Z" fill="#8DFF1A"/>
<path d="M31.7922 233.745L21.9232 276.025L7.86462 264.868L31.7922 233.745Z" fill="#057346"/>
<path d="M22.2635 273.711L43.6557 235.704L31.7287 233.76L22.2635 273.711Z" fill="#0BAB5C"/>
<path d="M15.375 160.288L31.7362 233.769L39.8802 235.102L15.375 160.288Z" fill="#42B98C"/>
<path d="M13.2218 140.037L9.99901 144.066L15.4531 144.066L18.8847 139.574L13.2218 140.037Z" fill="#FBFBFB"/>
<path d="M160.275 131.744L154.291 131.745L161.39 234.611L160.275 131.744Z" fill="#8DFF1A"/>
<path d="M138.723 167.626L146.57 252.628L154.308 131.725L138.723 167.626Z" fill="#00FF86"/>
<path d="M143.619 292.821L126.998 291.166L133.191 247.127L146.524 252.362L143.619 292.821Z" fill="#42B98C"/>
<path d="M146.563 252.245L155.718 264.319L143.109 288.093L146.563 252.245Z" fill="#057346"/>
<path d="M154.492 131.66L164.049 60.602L138.673 167.867L154.492 131.66Z" fill="#8DFF1A"/>
<path d="M133.11 247.177L146.517 252.455L138.71 167.236L133.11 247.177Z" fill="#0BAB5C"/>
<path d="M156.561 265.256L146.508 252.318L160.094 252.318" fill="#42B98C"/>
<path d="M192.529 149.727L197.869 137.779L192.527 138.924L190.093 143.305" fill="#EAB0F5"/>
<path d="M162.77 252.233L154.288 131.801L146.483 252.365L162.77 252.233Z" fill="#21ED94"/>
<path d="M37.0931 246.827L56.7463 255.599L46.1647 263.63L37.0946 259.846L37.0931 246.827Z" fill="#42B98C"/>
<path d="M58.3493 251.876L42.571 262.09L41.5494 249.83L48.4131 245.915L58.3493 251.876Z" fill="#42B98C"/>
<path d="M52.1966 265.407L46.5053 262.273L46.5047 256.941L52.8258 253.147L52.1966 265.407Z" fill="#42B98C"/>
<path d="M42.3699 263.173L35.6602 256.491L50.8466 251.624L49.9442 260.33L42.3699 263.173Z" fill="#42B98C"/>
<path d="M38.4949 272.992L65.4777 239.911L51.2399 230.942L32.6381 269.794L38.4949 272.992Z" fill="#42B98C"/>
<path d="M32.0895 265.563L43.1033 272.462L59.2953 236.08L54.1992 232.777L32.0895 265.563Z" fill="#42B98C"/>
<path d="M70.4501 261.956L69.7845 267.547L36.8916 271.436L37.6187 259.259L70.4501 261.956Z" fill="#42B98C"/>
<path d="M35.6011 238.098L42.0725 236.364L59.5326 270.016L44.5206 274.896L35.6011 238.098Z" fill="#42B98C"/>
<path d="M42.9793 272.569L35.9797 277.43L31.0081 274.461L32.1165 265.469L42.9793 272.569Z" fill="#42B98C"/>
<path d="M109.056 251.106L128.594 291.069L122.686 294.598L93.2349 261.263L109.056 251.106Z" fill="#00FF86"/>
<path d="M117.418 262L124.28 267.782L123.347 274.367L114.665 277.457L117.418 262Z" fill="#00FF86"/>
<path d="M110.272 281.965L115.666 281.06L117.044 277.599L114.682 273.347L109.762 273.772L107.754 278.326L110.272 281.965Z" fill="#00FF86"/>
<path d="M112.386 273.462L111.421 282.551L116.495 279.96L116.767 276.877L112.386 273.462Z" fill="#00FF86"/>
<path d="M94.496 271.855L130.28 285.47L133.034 270.1L95.8599 265.32L94.496 271.855Z" fill="#00FF86"/>
<path d="M107.124 279.227L108.455 268.921L101.662 264.632L92.9078 270.299L107.124 279.227Z" fill="#00FF86"/>
<path d="M69.7046 264.755L72.2174 301.478L49.8216 297.575L69.7046 264.755Z" fill="#0BAB5C"/>
<path d="M62.213 205.022L87.9695 297.116L69.6338 264.917L62.2164 233.96L62.213 205.022Z" fill="#21ED94"/>
<path d="M69.7179 264.73L72.0996 301.284L88.3899 297.273L69.7179 264.73Z" fill="#057346"/>
<path d="M62.1699 205.025L72.9007 243.446L63.3422 133.159L62.1699 205.025Z" fill="#00FF86"/>
<path d="M49.856 297.614L69.6997 264.746L62.3364 233.429L49.856 297.614Z" fill="#42B98C"/>
<path d="M101.898 236.92L114.485 243.488L127.871 118.768L101.898 236.92Z" fill="#0BAB5C"/>
<path d="M127.87 118.568L120.601 100.159L101.895 236.929L127.87 118.568Z" fill="#21ED94"/>
<path d="M86.3655 291.463L85.0385 286.785L101.873 236.947L114.511 243.382L86.3655 291.463Z" fill="#42B98C"/>
<path d="M87.1827 294.288L86.3345 291.315L114.499 243.333L122.507 306.348L87.1827 294.288Z" fill="#0BAB5C"/>
<path d="M114.495 243.335L130.907 243.167L131.104 134.162L114.495 243.335Z" fill="#21ED94"/>
<path d="M143.185 304.862L130.879 243.116L122.605 306.632L143.185 304.862Z" fill="#057346"/>
<path d="M130.898 243.19L114.471 243.339L122.479 306.259L130.898 243.19Z" fill="#42B98C"/>
<path d="M131.094 134.35L133.536 118.177L127.728 118.178L114.495 243.332" fill="#00FF86"/>
<path d="M55.9727 267.464L62.064 234.913L37.3242 238.383L55.9727 267.464Z" fill="#0BAB5C"/>
<path d="M62.236 202.364L33.4423 104.564L24.5302 123.252L62.2399 235.099L62.236 202.364Z" fill="#00FF86"/>
<path d="M62.1789 234.864L24.6875 122.944L37.4514 238.498L62.1789 234.864Z" fill="#21ED94"/>
<path d="M37.3092 238.385L55.9104 266.838L50.8412 292.933L24.0536 292.149L37.3092 238.385Z" fill="#057346"/>
<path d="M24.111 292.358L37.3206 238.435L14.9563 286.997L24.111 292.358Z" fill="#42B98C"/>
<path d="M261.297 1.65378L206.586 121.848L196.635 102.352L261.297 1.65378Z" fill="#8DFF1A"/>
<path d="M139.967 289.262L161.512 234.754L184.686 242.345L140.598 293.023L139.967 289.262Z" fill="#0BAB5C"/>
<path d="M184.69 242.348L207.91 302.052L141.342 297.332L140.524 292.969L184.69 242.348Z" fill="#057346"/>
<path d="M184.678 242.35L161.391 234.853L206.605 121.719L184.678 242.35Z" fill="#42B98C"/>
<path d="M184.685 242.333L207.676 301.685L192.241 241.826L184.685 242.333Z" fill="#42B98C"/>
<path d="M206.58 121.737L192.404 241.879L184.654 242.386L206.58 121.737Z" fill="#21ED94"/>
<path d="M161.607 234.442L196.725 102.269L206.541 121.884L161.607 234.442Z" fill="#00FF86"/>
<path d="M91.7301 108.141L75.0337 157.894L86.7549 173.645L91.7301 108.141Z" fill="#8DFF1A"/>
<path d="M76.5959 238.497L76.963 243.123L78.9202 264.665L95.5981 241.136L76.5959 238.497Z" fill="#0BAB5C"/>
<path d="M76.6477 238.48L95.5897 241.143L86.7697 173.449L76.6477 238.48Z" fill="#21ED94"/>
<path d="M75.1696 157.895L86.8175 173.513L76.6091 238.544L75.1696 157.895Z" fill="#42B98C"/>
<path d="M95.5155 241.02L95.5172 255.789L85.0606 286.759L78.8812 264.688L95.5155 241.02Z" fill="#057346"/>
</svg>
