<svg width="186" height="311" viewBox="0 0 186 311" fill="none" xmlns="http://www.w3.org/2000/svg">
<path d="M171.914 66.601L163.758 66.6001L130.822 194.219L171.914 66.601Z" fill="#21ED94"/>
<path d="M138.949 202.022L153.893 265.843L175.181 249.001L138.949 202.022Z" fill="#057346"/>
<path d="M153.377 262.35L120.984 204.978L139.045 202.045L153.377 262.35Z" fill="#0BAB5C"/>
<path d="M163.812 91.1354L139.038 202.056L126.706 204.068L163.812 91.1354Z" fill="#42B98C"/>
<path d="M130.924 221.768L101.164 235.009L117.188 247.132L130.922 241.421L130.924 221.768Z" fill="#42B98C"/>
<path d="M98.74 229.392L122.632 244.81L124.179 226.303L113.786 220.394L98.74 229.392Z" fill="#42B98C"/>
<path d="M108.051 249.815L116.669 245.084L116.67 237.035L107.098 231.308L108.051 249.815Z" fill="#42B98C"/>
<path d="M122.93 246.444L133.09 236.357L110.094 229.01L111.46 242.152L122.93 246.444Z" fill="#42B98C"/>
<path d="M128.804 261.266L87.9459 211.329L109.505 197.79L137.673 256.437L128.804 261.266Z" fill="#42B98C"/>
<path d="M138.503 250.053L121.825 260.466L97.3068 205.547L105.024 200.561L138.503 250.053Z" fill="#42B98C"/>
<path d="M80.4135 244.604L81.4215 253.044L131.229 258.914L130.128 240.533L80.4135 244.604Z" fill="#42B98C"/>
<path d="M133.183 208.593L123.383 205.976L96.9443 256.774L119.676 264.14L133.183 208.593Z" fill="#42B98C"/>
<path d="M122.011 260.626L132.61 267.963L140.138 263.481L138.46 249.908L122.011 260.626Z" fill="#42B98C"/>
<path d="M81.5439 248.833L77.7389 304.267L111.652 298.375L81.5439 248.833Z" fill="#0BAB5C"/>
<path d="M92.8896 158.662L53.888 297.678L81.6528 249.073L92.8845 202.344L92.8896 158.662Z" fill="#21ED94"/>
<path d="M81.5235 248.795L77.917 303.974L53.2495 297.919L81.5235 248.795Z" fill="#057346"/>
<path d="M92.9497 158.669L76.7006 216.666L91.1745 50.1868L92.9497 158.669Z" fill="#00FF86"/>
<path d="M111.596 298.431L81.548 248.817L92.6979 201.543L111.596 298.431Z" fill="#42B98C"/>
<path d="M102.34 252.92L93.1161 203.785L130.578 209.023L102.34 252.92Z" fill="#0BAB5C"/>
<path d="M92.9409 203.712L149.712 34.7674L130.384 209.197L92.9409 203.712Z" fill="#21ED94"/>
<path d="M130.598 209.025L102.431 251.975L110.107 291.365L150.67 290.183L130.598 209.025Z" fill="#057346"/>
<path d="M150.582 290.5L130.579 209.102L164.444 282.407L150.582 290.5Z" fill="#42B98C"/>
<path d="M48.1894 12.4195L73.4718 87.5215L55.7231 111.298L48.1894 12.4195Z" fill="#8DFF1A"/>
<path d="M73.2749 87.6231L48.1984 12.4845L57.1054 2.19724L73.2749 87.6231Z" fill="#00FF86"/>
<path d="M71.1086 209.194L70.5527 216.177L67.589 248.694L42.3345 213.178L71.1086 209.194Z" fill="#0BAB5C"/>
<path d="M71.0301 209.167L42.3474 213.186L55.7029 111.001L71.0301 209.167Z" fill="#21ED94"/>
<path d="M73.2639 87.5222L55.6261 111.099L71.0841 209.263L73.2639 87.5222Z" fill="#42B98C"/>
<path d="M42.4608 213.003L42.4582 235.298L58.2921 282.047L67.6491 248.73L42.4608 213.003Z" fill="#057346"/>
</svg>
