<svg width="458" height="331" viewBox="0 0 458 331" fill="none" xmlns="http://www.w3.org/2000/svg">
<path d="M125.902 246.68L142.24 263.614L95.1389 313.15L82.4656 303.439L125.902 246.68Z" fill="#EF8901"/>
<path d="M82.5221 303.368L77.0745 296.193L115.197 250.288L120.972 257.538L82.5221 303.368Z" fill="#CF6D02"/>
<path d="M142.337 263.381L151.773 262.893L101.772 314.689L94.952 313.051L142.337 263.381Z" fill="#E1870A"/>
<path d="M212.369 217.152L209.337 207.615L142.471 263.434L152.045 263.024L212.369 217.152Z" fill="#EF8901"/>
<path d="M201.672 193.784L193.907 187.834L140.004 230.33L140.268 243.425L201.672 193.784Z" fill="#CF6D02"/>
<path d="M130.417 251.392L142.474 263.434L209.431 207.828L201.711 193.715L130.417 251.392Z" fill="#FE9400"/>
<path d="M12.3867 107.835L8.70913 117.381L63.5338 167.98L71.3677 157.756L12.3867 107.835Z" fill="#CF6D02"/>
<path d="M12.6047 107.875L21.2752 106.739L70.0788 138.652L71.4244 157.808L12.6047 107.875Z" fill="#E18000"/>
<path d="M69.6724 137.767L97.9961 89.7847L71.4138 157.839L69.6724 137.767Z" fill="#E1870A"/>
<path d="M71.4138 157.788L86.8217 166.495L106.13 96.2912L97.7773 89.8906L71.4138 157.788Z" fill="#FE9400"/>
<path d="M29.8149 202.738L91.3383 217.095L78.8846 199.746L28.1591 191.763L29.8149 202.738Z" fill="#D16F02"/>
<path d="M140.38 243.223L71.3711 157.723L63.5559 167.922L130.31 251.35L140.38 243.223Z" fill="#EF8901"/>
<path d="M28.2103 191.943L79.0879 199.807L72.1573 190.055L38.469 186.757L28.2103 191.943Z" fill="#EF8901"/>
<path d="M140.075 230.359L140.366 243.199L71.3311 157.674L86.7749 166.512" fill="#E1870A"/>
<path d="M61.2267 175.932L63.7028 167.866L8.82031 117.503L8.73208 125.745" fill="#C75E06"/>
<path d="M130.472 251.426L63.6016 167.907L61.2181 175.843L120.771 257.852L130.472 251.426Z" fill="#CF6D02"/>
<path d="M193.842 187.889L201.601 193.834L216.435 123.106L210.258 121.058L193.842 187.889Z" fill="#C75E06"/>
<path d="M216.941 123.284L250.31 11.4756L248.504 5.67773L210.079 120.728L216.941 123.284Z" fill="#CF6D02"/>
<path d="M231.745 128.668L257.184 13.6175L250.266 11.7065L216.629 123.2L231.745 128.668Z" fill="#EF8901"/>
<path d="M239.712 133.324L231.431 186.414L223.541 180.368L231.619 128.551L239.712 133.324Z" fill="#CF6D02"/>
<path d="M201.413 193.49L223.417 180.32L231.701 128.364L216.578 123.289L201.413 193.49Z" fill="#E1870A"/>
<path d="M250.19 11.8056L257.174 13.6755L262.299 10.1319L258.496 5.78704L251.989 3.73725L248.514 5.69871L250.19 11.8056Z" fill="#FE9400"/>
<path d="M400.125 168.525L408.747 168.61L384.567 215.068L370.801 215.213L400.125 168.525Z" fill="#EF8901"/>
<path d="M375.462 233.11L370.353 238.382L310.915 254.217L308.004 248.892L375.462 233.11Z" fill="#CF6D02"/>
<path d="M390.237 215.076L384.409 215.193L408.711 168.6L411.05 176.648L390.237 215.076Z" fill="#C75E06"/>
<path d="M335.5 327.13L280.679 253.129L286.309 244.022L340.138 321.077L335.5 327.13Z" fill="#CF6D02"/>
<path d="M370.841 215.211L375.122 233.279L307.788 248.895L291.011 227.963L370.841 215.211Z" fill="#EF8901"/>
<path d="M209.079 207.935L212.342 217.436L280.756 253.324L286.649 244.031L209.079 207.935Z" fill="#E1870A"/>
<path d="M299.477 233.916L201.242 193.501L223.494 180.265L299.477 233.916Z" fill="#FE9400"/>
<path d="M347.436 320.096L340.158 321.159L286.376 244.207L299.433 233.566L347.436 320.096Z" fill="#FE9400"/>
<path d="M448.663 214.455L453.865 220.169L452.022 227.754L444.096 220.401L448.663 214.455Z" fill="#EF8901"/>
<path d="M393.418 237.399L452.027 227.683L444.116 220.386L375.094 233.286L393.418 237.399Z" fill="#CF6D02"/>
<path d="M340.06 321.103L335.484 327.124L343.496 326.575L347.446 320.106L340.06 321.103Z" fill="#C75E06"/>
<path d="M369.904 238.74L419.345 296.063L424.614 296.451L375.1 233.266L369.904 238.74Z" fill="#C75E06"/>
<path d="M424.205 296.611L427.977 288.427L394.277 237.243L375.099 233.291L424.205 296.611Z" fill="#EF8901"/>
</svg>
