<svg width="264" height="216" viewBox="0 0 264 216" fill="none" xmlns="http://www.w3.org/2000/svg">
<path d="M114.291 87.0399L127.952 214.226L123.371 211.331L114.291 87.0399Z" fill="#8B52BD"/>
<path d="M213.304 96.8087L207.76 98.2603L204.155 95.6717L204.661 91.5626L209.447 88.7946L214.31 91.0975L213.304 96.8087Z" fill="#BC6DDD"/>
<path d="M120.455 171.68L120.72 174.406L48.2266 138.817L120.455 171.68Z" fill="#EAB0F5"/>
<path d="M114.126 86.6595L127.795 214.039L131.326 211.901L114.126 86.6595Z" fill="#EAB0F5"/>
<path d="M122.593 148.529L123.043 151.797L204.375 95.7759L122.593 148.529Z" fill="#8B52BD"/>
<path d="M121.035 177.882L121.283 174.724L47.4609 138.396L121.035 177.882Z" fill="#8B52BD"/>
<path d="M209.095 4.40892L206.409 22.5592L210.304 23.9548L219.604 7.86888L209.095 4.40892Z" fill="#8B52BD"/>
<path d="M172.003 35.9424L171.318 31.7171L175.992 27.5521L178.843 38.7163L172.003 35.9424Z" fill="#EAB0F5"/>
<path d="M217.051 49.3347L226.926 43.1601L210.154 33.8524L206.93 35.5783L217.051 49.3347Z" fill="#8B52BD"/>
<path d="M122.539 148.748L204.27 95.7729L122.344 146.863L122.539 148.748Z" fill="#EAB0F5"/>
<path d="M178.758 38.8697L198.067 33.3701L197.349 30.4824L175.937 27.534L178.758 38.8697Z" fill="#8B52BD"/>
<path d="M228.033 48.8076L226.758 42.9147L216.976 49.2145L224.212 51.3567L228.033 48.8076Z" fill="#EAB0F5"/>
<path d="M82.736 154.493L85.0401 155.582L54.3359 66.7771L82.736 154.493Z" fill="#EAB0F5"/>
<path d="M218.233 2.78697L213.66 1.06386L209.053 4.43377L219.494 7.83921L218.233 2.78697Z" fill="#EAB0F5"/>
<path d="M206.148 34.266L209.932 31.8536L208.876 26.2944L204.669 25.1314L200.769 28.4405L201.581 33.3487L206.148 34.266Z" fill="#BC6DDD"/>
<path d="M192.107 3.41077L196.128 5.39373L187.661 9.8132L188.321 4.8799L192.107 3.41077Z" fill="#EB7EFF"/>
<path d="M201.565 33.3507L164.641 120.509L161.443 122.481L201.565 33.3507Z" fill="#8B52BD"/>
<path d="M161.397 122.606L201.607 33.3016L157.917 124.755L161.397 122.606Z" fill="#EAB0F5"/>
<path d="M199.477 25.6359L202.025 24.0035L196.103 5.37044L187.384 9.70663L199.477 25.6359Z" fill="#976ADE"/>
<path d="M51.9912 39.2353L54.37 62.0334L52.9265 63.3463L49.3281 42.3922L51.9912 39.2353Z" fill="#8B52BD"/>
<path d="M48.9713 67.7543L30.2812 61.6208L34.1823 57.581L50.177 66.2284L48.9713 67.7543Z" fill="#8B52BD"/>
<path d="M31.6068 57.0563L34.3403 57.6325L30.2683 61.6512L30.1375 58.5776L31.6068 57.0563Z" fill="#EAB0F5"/>
<path d="M57.3836 59.4874L55.513 62.392L53.6441 37.5476L57.9494 33.0884L57.3836 59.4874Z" fill="#976ADE"/>
<path d="M19.2109 70.4944L46.7434 70.6849L49.5174 68.9276L26.3805 65.2023L19.2109 70.4944Z" fill="#976ADE"/>
<path d="M53.445 32.95L53.6156 37.6018L57.9413 33.1204L55.2736 31.0548L53.445 32.95Z" fill="#EB7EFF"/>
<path d="M18.7737 67.0497L22.1707 64.2695L26.4268 65.2117L19.2216 70.5027L18.7737 67.0497Z" fill="#EB7EFF"/>
<path d="M180.186 180.508L179.621 179.438L128.347 193.008L129.075 195.974L180.186 180.508Z" fill="#EAB0F5"/>
<path d="M199.244 163.472L179.986 181.841L179.988 180.788L179.398 179.517L199.244 163.472Z" fill="#976ADE"/>
<path d="M56.4387 63.5904L54.7376 64.9262L52.3093 67.3556L51.2619 69.1435L52.6007 68.5448L55.4675 65.607L56.4387 63.5904Z" fill="#BC6DDD"/>
<path d="M48.6625 39.9442L49.3263 42.3923L51.9988 39.2421L49.9064 38.6106L48.6625 39.9442Z" fill="#EAB0F5"/>
<path d="M129.061 195.943L179.988 180.544L179.988 181.885L129.595 199.255L129.061 195.943Z" fill="#8B52BD"/>
<path d="M54.3125 66.7937L82.7096 154.499L79.4073 152.991L54.3125 66.7937Z" fill="#8B52BD"/>
<path d="M39.87 130.895L38.669 133.615L3.73173 126.781L8.86192 115.029L39.87 130.895Z" fill="#8B52BD"/>
<path d="M76.9843 106.691L73.889 113.878L67.5781 104.633L74.111 103.333L76.9843 106.691Z" fill="#EAB0F5"/>
<path d="M49.0698 129.58L50.411 131.982L73.8839 113.828L67.5682 104.533L49.0698 129.58Z" fill="#8B52BD"/>
<path d="M152.254 64.8375L122.181 77.0777L122.182 81.15L155.908 78.812L152.254 64.8375Z" fill="#976ADE"/>
<path d="M118.418 37.4534L113.504 70.3088L117.287 71.2571L133.278 42.6136L118.418 37.4534Z" fill="#8B52BD"/>
<path d="M71.8538 142.161L50.8849 137.98L51.5351 135.816L72.9026 133.253L71.8538 142.161Z" fill="#976ADE"/>
<path d="M39.3564 153.292L57.7321 148.476L55.0598 159.523L46.8465 161.279L39.3564 153.292Z" fill="#EAB0F5"/>
<path d="M155.829 78.7501L163.959 72.1111L162.054 66.2035L152.164 64.8191L155.829 78.7501Z" fill="#EB7EFF"/>
<path d="M104.44 75.1042L106.67 72.644L88.468 40.7442L75.3719 52.0573L104.44 75.1042Z" fill="#976ADE"/>
<path d="M57.6949 148.689L39.393 153.371L43.805 142.125L47.74 140.959" fill="#8B52BD"/>
<path d="M133.361 42.7707L134.139 31.4162L125.975 28.5054L118.462 37.4999L133.361 42.7707Z" fill="#EAB0F5"/>
<path d="M3.90356 126.672L9.06232 115.129L3.90256 116.236L1.55022 120.468" fill="#EAB0F5"/>
<path d="M108.56 85.506L114.208 87.0685L117.781 83.3837L117.038 77.624L111.492 76.0818L107.876 79.7588L108.56 85.506Z" fill="#BC6DDD"/>
<path d="M48.0774 90.6361L61.3629 96.0023L62.1845 76.8834L49.0712 80.1458L48.0774 90.6361Z" fill="#EAB0F5"/>
<path d="M62.0015 76.8609L102.661 81.8886L103.057 85.5998L61.3706 95.819L62.0015 76.8609Z" fill="#8B52BD"/>
<path d="M75.3809 52.0928L69.7592 40.7123L76.8257 34.6143L88.4782 40.7101L75.3809 52.0928Z" fill="#EB7EFF"/>
<path d="M149.694 105.432L120.797 87.2379L117.913 90.1872L138.166 118.436L149.694 105.432Z" fill="#8B52BD"/>
<path d="M189.973 47.9252L174.732 57.7923L173.745 45.9506L180.377 42.1667L189.973 47.9252Z" fill="#EAB0F5"/>
<path d="M169.015 100.444L163.518 97.4161L163.517 92.2657L169.623 88.6006L169.015 100.444Z" fill="#EB7EFF"/>
<path d="M217.104 89.1403L243.17 57.1835L229.417 48.5194L211.447 86.0504L217.104 89.1403Z" fill="#976ADE"/>
<path d="M180.79 130.961L191.429 137.625L207.07 102.48L202.148 99.2892L180.79 130.961Z" fill="#8B52BD"/>
<path d="M201.328 91.1979L200.684 96.5989L168.91 100.356L169.613 88.5928L201.328 91.1979Z" fill="#976ADE"/>
<path d="M191.308 137.727L184.546 142.421L179.745 139.556L180.815 130.869L191.308 137.727Z" fill="#EAB0F5"/>
<path d="M189.436 47.2939L208.309 85.8989L202.602 89.3077L174.153 57.1063L189.436 47.2939Z" fill="#8B52BD"/>
<path d="M253.776 95.5549L260.404 101.141L259.504 107.501L251.116 110.485L253.776 95.5549Z" fill="#EAB0F5"/>
<path d="M42.7671 139.655L47.9784 138.781L49.3097 135.437L47.0275 131.329L42.2747 131.739L40.3344 136.138L42.7671 139.655Z" fill="#BC6DDD"/>
<path d="M72.7135 133.362L71.7814 142.143L76.6826 139.64L76.9457 136.662L72.7135 133.362Z" fill="#EB7EFF"/>
<path d="M216.676 97.2363L251.243 110.389L253.903 95.5415L217.993 90.9237L216.676 97.2363Z" fill="#8B52BD"/>
</svg>
