<svg width="91" height="92" viewBox="0 0 91 92" fill="none" xmlns="http://www.w3.org/2000/svg">
<path d="M37.69 12L16.8 41.36L8.75 24.84L16.09 17.36L37.69 12Z" fill="#ADADAD"/>
<path d="M16.8 41.36L0 52.94L2.26 37.69L8.75 24.84L16.8 41.36Z" fill="#CECECE"/>
<path d="M23.57 69.74L0 52.94L16.8 41.36L23.57 69.74Z" fill="#E4E4E4"/>
<path d="M48.35 91.48L16.8 86.96L0 52.94L23.57 69.74L48.35 91.48Z" fill="#CBCBCB"/>
<path d="M79.9 23.15L64.8 71.15L23.57 69.74L16.8 41.36L37.69 12L79.9 23.15Z" fill="#EEEEEE"/>
<path d="M90.77 43.34L85.41 69.88L64.8 71.15L79.9 23.15L90.77 43.34Z" fill="white"/>
<path d="M85.41 69.88L62.1096 91.4799L48.35 91.48L64.8 71.15L85.41 69.88Z" fill="#CCCCCC"/>
<path d="M79.9 23.15L37.69 12L67.7604 5.63989L79.9 23.15Z" fill="#CECECE"/>
<path d="M67.7604 5.63989L37.69 12L16.09 17.36L40.94 0L67.7604 5.63989Z" fill="#E6E6E6"/>
<path d="M64.8 71.15L48.35 91.48L23.57 69.74L64.8 71.15Z" fill="#B3B3B3"/>
<path d="M55.6168 39.15C55.6668 38.35 55.6168 37.65 55.4668 36.9C55.4168 36.5 55.4168 36 55.3168 35.65C54.7668 33.8 53.5668 32.35 52.1668 31.75C50.9168 31.1 49.4668 30.75 47.6668 30.75C46.4168 30.75 45.8668 30.8 44.5668 31.15C43.2668 31.6 41.8668 32.45 41.1168 33.55C39.5168 35.55 39.2668 38 39.3168 39.95C39.3168 40.4 39.2168 40.6 39.2668 41.1C39.3168 42.25 39.6168 42.55 40.3668 42.55C41.7168 42.55 42.9668 42.5 43.6168 42.55C43.7668 42.55 44.9668 42.65 44.9668 41.3C44.9668 40.6 45.0668 40.45 44.9668 39.45C45.0168 38.15 45.2668 36.4 47.0168 36.4C47.4668 36.4 48.0168 36.45 48.3168 36.6C48.9668 36.95 49.7168 37.6 49.7168 39.15C49.7168 40.9 48.9668 42.95 48.1668 44.35C47.7168 45.25 47.0668 45.85 46.0668 47.65C45.5168 48.65 45.2668 48.9 44.7168 49.8C43.6168 51.45 42.4168 53.35 41.6668 54.45C41.2668 55.15 40.4668 55.95 40.3668 57.1C40.3168 57.45 40.3668 59.4 40.2668 59.95C40.2668 60.25 40.2168 61.15 41.5168 61.15C42.9168 61.15 43.6168 60.95 45.2168 60.95C46.1168 60.95 46.8668 61.05 47.7668 61.05C49.2668 61.1 50.1168 60.95 51.4168 60.95H54.4168C55.7168 60.95 55.6668 60.35 55.6168 59.8L55.5668 59C55.5168 58.05 55.6168 57.1 55.6668 56.15C55.6168 55.2 54.7168 55.3 54.4668 55.35C53.6668 55.4 50.9168 55.5 49.7668 55.45C49.2168 55.4 47.9668 55.7 48.8668 54.25C49.7668 52.85 51.1168 51.15 52.0168 49.1C52.2668 48.6 53.1168 47.2 53.6668 46.15C54.8668 43.5 55.5168 42 55.6168 39.15Z" fill="#524B4B"/>
</svg>
