<svg width="91" height="92" viewBox="0 0 91 92" fill="none" xmlns="http://www.w3.org/2000/svg">
<path d="M37.69 12L16.8 41.36L8.75 24.84L16.09 17.36L37.69 12Z" fill="#ADADAD"/>
<path d="M16.8 41.36L0 52.94L2.26 37.69L8.75 24.84L16.8 41.36Z" fill="#CECECE"/>
<path d="M23.57 69.74L0 52.94L16.8 41.36L23.57 69.74Z" fill="#E4E4E4"/>
<path d="M48.35 91.48L16.8 86.96L0 52.94L23.57 69.74L48.35 91.48Z" fill="#CBCBCB"/>
<path d="M79.9 23.15L64.8 71.15L23.57 69.74L16.8 41.36L37.69 12L79.9 23.15Z" fill="#EEEEEE"/>
<path d="M90.77 43.34L85.41 69.88L64.8 71.15L79.9 23.15L90.77 43.34Z" fill="white"/>
<path d="M85.41 69.88L62.1096 91.4799L48.35 91.48L64.8 71.15L85.41 69.88Z" fill="#CCCCCC"/>
<path d="M79.9 23.15L37.69 12L67.7604 5.63989L79.9 23.15Z" fill="#CECECE"/>
<path d="M67.7604 5.63989L37.69 12L16.09 17.36L40.94 0L67.7604 5.63989Z" fill="#E6E6E6"/>
<path d="M64.8 71.15L48.35 91.48L23.57 69.74L64.8 71.15Z" fill="#B3B3B3"/>
<path d="M51.6895 32.25C51.7395 31.85 51.7395 31.05 50.7395 31.05C49.8895 31.05 49.8895 31 49.0395 30.95C48.3395 30.9 47.8895 31.9 47.3895 32.6C46.6895 33.7 45.9895 34.6 45.2895 34.95C44.6395 35.2 43.1895 35.35 42.5895 35.85C41.9895 36.55 42.1395 37.05 42.0895 37.7C42.0395 39.35 42.0395 39.7 42.8395 39.8H44.1395C44.8395 39.8 45.3395 39.65 45.3395 40.95C45.3395 42.55 45.3895 45.2 45.2895 46.4C45.2895 47.55 45.3895 50.25 45.2395 51.45C45.1395 52.65 45.3395 53.5 45.2895 54.75C45.2395 56.6 45.1395 57.8 45.0395 59.55C45.0395 60.35 45.2395 61.05 46.1895 61.05C46.8395 61.05 47.2895 61.05 47.9895 61.1H50.1895C51.1395 61.1 51.5395 60.75 51.5895 59.55C51.5895 57.75 51.4395 56.6 51.4395 54.75V52.4C51.4395 51.5 51.5395 50.8 51.5395 49.85C51.5395 49.25 51.4895 48.7 51.4895 48.2C51.4895 46.9 51.5895 45.9 51.5895 44.55L51.5395 42.3C51.5395 41.6 51.4895 39.7 51.5395 38.5C51.6395 37.45 51.5895 37.6 51.5895 36.5C51.5895 35.1 51.6895 34.15 51.6895 32.75V32.25Z" fill="#524B4B"/>
</svg>
