<svg width="91" height="92" viewBox="0 0 91 92" fill="none" xmlns="http://www.w3.org/2000/svg">
<path d="M37.69 12L16.8 41.36L8.75 24.84L16.09 17.36L37.69 12Z" fill="#ADADAD"/>
<path d="M16.8 41.36L0 52.94L2.26 37.69L8.75 24.84L16.8 41.36Z" fill="#CECECE"/>
<path d="M23.57 69.74L0 52.94L16.8 41.36L23.57 69.74Z" fill="#E4E4E4"/>
<path d="M48.35 91.48L16.8 86.96L0 52.94L23.57 69.74L48.35 91.48Z" fill="#CBCBCB"/>
<path d="M79.9 23.15L64.8 71.15L23.57 69.74L16.8 41.36L37.69 12L79.9 23.15Z" fill="#EEEEEE"/>
<path d="M90.77 43.34L85.41 69.88L64.8 71.15L79.9 23.15L90.77 43.34Z" fill="white"/>
<path d="M85.41 69.88L62.1096 91.4799L48.35 91.48L64.8 71.15L85.41 69.88Z" fill="#CCCCCC"/>
<path d="M79.9 23.15L37.69 12L67.7604 5.63989L79.9 23.15Z" fill="#CECECE"/>
<path d="M67.7604 5.63989L37.69 12L16.09 17.36L40.94 0L67.7604 5.63989Z" fill="#E6E6E6"/>
<path d="M64.8 71.15L48.35 91.48L23.57 69.74L64.8 71.15Z" fill="#B3B3B3"/>
<path d="M56.0424 52.05C56.0424 50.2 56.2424 48.85 55.1424 47.05C54.7424 46.3 54.1424 45.7 53.6424 45.3C53.2924 44.95 52.5424 44.6 52.5924 44.2C52.6924 43.75 53.4924 43.55 54.2924 42.25C54.6924 41.55 55.2924 40.25 55.2424 38.35C55.2924 37.05 54.9924 35.85 54.3424 34.55C53.6924 33.25 53.0924 32.6 51.8924 31.9C51.3424 31.6 49.5424 30.85 47.5924 30.75C45.9424 30.7 43.6424 30.9 41.9924 32.25C41.4924 32.65 41.0924 32.95 40.6924 33.35C40.2924 33.7 39.9424 34.05 39.6424 34.5C38.6424 35.8 38.9424 36.35 39.9924 37.5C40.3424 37.9 40.5924 38.35 40.9924 38.75C41.8924 39.6 42.4424 40 43.0924 39.3C43.3924 39 43.6424 38.45 43.9924 38.1C45.1424 36.9 46.4424 36.5 47.2924 36.7C48.3424 37 49.3424 37.35 49.4424 39.45C49.4424 40.05 49.3924 40.55 48.9424 41.2C48.5424 41.75 47.5924 42.4 45.8424 42.4H44.9924C43.8424 42.35 43.6424 42.8 43.6424 43.6C43.6424 44.35 43.7424 45.2 43.6924 46.4C43.6924 46.75 43.5924 47.55 44.7924 47.55C45.2424 47.55 45.7924 47.45 46.2924 47.45C48.7424 47.45 49.9424 49.15 49.9924 50.8C49.9924 51.4 50.1424 52.95 49.3924 53.95C48.9424 54.9 48.0424 55.45 46.7424 55.5C45.2424 55.5 43.9424 54.05 43.5424 53.5C42.8924 52.9 42.5924 51.9 41.5424 52.6C41.2424 52.85 39.4424 55 39.0424 55.55C38.4924 56.4 38.8424 57.3 39.9924 58.5C40.5424 59.1 40.7424 59.25 40.9924 59.5C42.3924 60.5 43.5424 61.15 46.2424 61.2C47.0924 61.25 47.8424 61.2 48.1924 61.15C49.2924 61 51.0924 60.55 52.1424 59.75C54.4924 58.1 56.1924 55.4 56.0424 52.05Z" fill="#524B4B"/>
</svg>
