<svg width="91" height="92" viewBox="0 0 91 92" fill="none" xmlns="http://www.w3.org/2000/svg">
<path d="M37.69 12L16.8 41.36L8.75 24.84L16.09 17.36L37.69 12Z" fill="#ADADAD"/>
<path d="M16.8 41.36L0 52.94L2.26 37.69L8.75 24.84L16.8 41.36Z" fill="#CECECE"/>
<path d="M23.57 69.74L0 52.94L16.8 41.36L23.57 69.74Z" fill="#E4E4E4"/>
<path d="M48.35 91.48L16.8 86.96L0 52.94L23.57 69.74L48.35 91.48Z" fill="#CBCBCB"/>
<path d="M79.9 23.15L64.8 71.15L23.57 69.74L16.8 41.36L37.69 12L79.9 23.15Z" fill="#EEEEEE"/>
<path d="M90.77 43.34L85.41 69.88L64.8 71.15L79.9 23.15L90.77 43.34Z" fill="white"/>
<path d="M85.41 69.88L62.1096 91.4799L48.35 91.48L64.8 71.15L85.41 69.88Z" fill="#CCCCCC"/>
<path d="M79.9 23.15L37.69 12L67.7604 5.63989L79.9 23.15Z" fill="#CECECE"/>
<path d="M67.7604 5.63989L37.69 12L16.09 17.36L40.94 0L67.7604 5.63989Z" fill="#E6E6E6"/>
<path d="M64.8 71.15L48.35 91.48L23.57 69.74L64.8 71.15Z" fill="#B3B3B3"/>
<path d="M56.882 50.4C56.932 49.6 56.632 49.3 55.682 49.3C55.382 49.3 55.032 49.45 54.732 49.45C53.682 49.45 53.982 49 53.982 47.6C53.982 46.75 54.132 44.95 54.132 44.15C54.232 42.15 54.082 40.5 54.082 39.8C54.082 38.35 54.032 37.35 54.032 35.9C54.032 34.7 54.182 33.95 54.182 32.6C54.182 31.6 54.132 31.1 53.082 31.1L50.082 31.15C48.682 31.15 48.532 30.85 47.782 31.85C47.182 32.6 46.182 34.3 45.932 34.75C45.582 35.75 45.082 36.5 44.482 37.55C43.682 39 43.132 40 42.382 41.5C41.682 42.9 40.782 45.05 40.132 46.25C38.782 48.85 38.282 49.5 38.282 50.85C38.282 52.65 38.332 52.2 38.232 53.55C38.182 54 38.332 54.5 39.032 54.5C40.182 54.5 40.932 54.5 42.032 54.45C43.832 54.4 45.482 54.65 46.882 54.5C48.282 54.4 48.382 54.6 48.232 56.2C48.182 57.15 48.132 58.65 48.132 59.95C48.132 60.8 48.232 61.15 49.032 61.15C49.832 61.15 50.132 61.05 50.932 61.05C51.732 61.05 52.232 61.15 53.032 61.15C54.082 61.15 54.082 60.4 54.082 59.55C54.082 58.55 53.982 57.8 53.982 56.7C53.982 56.2 54.032 55.25 54.032 55.1C54.132 54.75 54.032 54.5 54.732 54.5H56.132C56.832 54.5 56.832 53.9 56.832 53.55V51.8C56.832 51.3 56.882 50.85 56.882 50.4ZM48.432 42.75C48.432 43.65 48.432 44.45 48.382 45.35C48.382 46.4 48.432 47.35 48.432 48.5C48.382 49.3 48.232 49.55 47.732 49.55C47.082 49.55 45.482 49.5 44.432 49.5C43.982 49.5 43.982 49.2 44.282 48.5C44.382 48.15 44.882 47.25 45.032 46.9C45.432 45.9 45.982 44.4 46.682 43C47.282 41.7 47.532 41.2 47.832 40.65C48.082 40.15 48.332 39.95 48.332 40.35C48.432 40.65 48.432 42.05 48.432 42.75Z" fill="#524B4B"/>
</svg>
