<svg width="111" height="244" viewBox="0 0 111 244" fill="none" xmlns="http://www.w3.org/2000/svg">
<path d="M38.1595 171.215L49.9789 172.85L30.6555 232.62L18.6562 229.732L38.1595 171.215Z" fill="#77BFC5"/>
<path d="M47.0234 0.443359H59.612L60.9937 67.759H48.9937L47.0234 0.443359Z" fill="#77BFC5"/>
<path d="M60.9937 67.7598L49.9321 172.879L38.1562 171.258L49.0006 67.7609L60.9937 67.7598Z" fill="#8ED0D3"/>
<path d="M59.5938 0.447266L70.1334 3.04579L71.2255 71.5895L60.914 67.7408L59.5938 0.447266Z" fill="#5D989E"/>
<path d="M48.999 67.7823L45.5975 68.4487L43.8047 1.74177L47.191 0.535156L48.999 67.7823Z" fill="#5D989E"/>
<path d="M59.5929 172.879H49.8672L60.9257 67.7324L71.2271 71.5796L59.5929 172.879Z" fill="#4F8B92"/>
<path d="M45.5993 68.4492L49.0016 67.7754L38.1697 171.233L35.3672 170.247L45.5993 68.4492Z" fill="#4F8B92"/>
<path d="M30.625 232.622L39.9646 233.886L59.5971 172.913L49.8663 172.832L30.625 232.622Z" fill="#467A7D"/>
<path d="M35.3675 170.246L38.1656 171.217L18.6609 229.755L17 224.59L35.3675 170.246Z" fill="#467A7D"/>
<path d="M24.9922 232.813L54.5026 204.939L64.7834 211.531L33.7137 243.159L24.9922 232.813Z" fill="#77BFC5"/>
<path d="M64.7824 211.634L96.0206 137.983L84.3105 131.039L54.5078 204.954L64.7824 211.634Z" fill="#8ED0D3"/>
<path d="M91.0863 82.4883L102.594 87.7581L96.0451 138.008L84.3203 131.052L91.0863 82.4883Z" fill="#77BFC5"/>
<path d="M33.7266 243.16L43.4239 242.885L71.9156 214.564L64.6993 211.57L33.7266 243.16Z" fill="#467A7D"/>
<path d="M71.9206 214.622L102.511 141.77L96.0148 138.004L64.6875 211.574L71.9206 214.622Z" fill="#4F8B92"/>
<path d="M96.0234 138.006L102.516 141.794L110.228 91.1079L102.587 87.75L96.0234 138.006Z" fill="#5D989E"/>
<path d="M0.5 243.185H33.649L23.0113 179.574H8.69922L0.5 243.185Z" fill="#77BFC5"/>
<path d="M23.1431 179.573L15.996 61.3939L0.367188 60.6641L8.68584 179.574L23.1431 179.573Z" fill="#8ED0D3"/>
<path d="M19.1394 60.3828L26.0082 178.413L23.02 179.61L15.9531 61.5559L19.1394 60.3828Z" fill="#4F8B92"/>
<path d="M33.649 243.186L36.7271 240.333L26.0123 178.398L23.0078 179.579L33.649 243.186Z" fill="#467A7D"/>
</svg>
