<svg width="165" height="304" viewBox="0 0 165 304" fill="none" xmlns="http://www.w3.org/2000/svg">
<path d="M125.871 213.906L100.716 207.01L78.4925 276.497L103.465 283.465L125.871 213.906Z" fill="#77BFC5"/>
<path d="M103.434 283.462L108.998 282.392L129.108 214.97L125.842 213.893L103.434 283.462Z" fill="#467A7D"/>
<path d="M150.516 88.6468L125.523 83.1524L100.71 207.032L125.911 213.958L150.516 88.6468Z" fill="#8ED0D3"/>
<path d="M134.897 3.38314L161.859 8.08846L150.698 88.7567L125.564 83.2362L134.897 3.38314Z" fill="#77BFC5"/>
<path d="M161.855 8.25394L164.919 12.111L154.141 91.6006L150.406 88.7426L161.855 8.25394Z" fill="#5D989E"/>
<path d="M129.102 215.009L125.808 214.035L150.413 88.75L154.155 91.596L129.102 215.009Z" fill="#4F8B92"/>
<path d="M25.7477 159.338L13.1172 162.024L56.3962 266.501L67.6958 263.936L25.7477 159.338Z" fill="#4F8B92"/>
<path d="M0.851562 81.5837L13.5747 78.5684L25.7838 159.37L13.1097 162.077L0.851562 81.5837Z" fill="#5D989E"/>
<path d="M13.3203 78.5678L26.1582 68.5098L37.8576 150.412L25.7357 159.382L13.3203 78.5678Z" fill="#77BFC5"/>
<path d="M37.8565 150.413L39.5288 144.727L28.8706 65.5332L26.125 68.5667L37.8565 150.413Z" fill="#5D989E"/>
<path d="M67.707 263.825L78.604 254.675L37.8776 150.443L25.7109 159.391L67.707 263.825Z" fill="#8ED0D3"/>
<path d="M114.564 288.837L78.5756 254.75L67.6406 263.8L107.458 300.682L114.564 288.837Z" fill="#77BFC5"/>
<path d="M78.5995 254.747L80.948 248.777L39.5266 144.748L37.8516 150.459L78.5995 254.747Z" fill="#4F8B92"/>
<path d="M112.631 277.294L109.605 283.166L78.5781 254.756L80.9327 248.799L112.631 277.294Z" fill="#467A7D"/>
<path d="M28.8756 65.5332H17.4033L7.16107 70.4133L0.5 77.9795L0.851889 81.5778L13.3324 78.627L26.1371 68.5766" fill="white"/>
<path d="M107.452 300.642L67.6182 263.824L56.3594 266.29L98.0229 303.781L107.452 300.642Z" fill="#467A7D"/>
</svg>
