<svg width="92" height="215" viewBox="0 0 92 215" fill="none" xmlns="http://www.w3.org/2000/svg">
<path d="M58.1719 149.555L75.966 144.846L91.2165 194.019L73.5508 198.781L58.1719 149.555Z" fill="#77BFC5"/>
<path d="M73.5746 198.78L69.6546 197.99L55.8828 150.286L58.1945 149.547L73.5746 198.78Z" fill="#467A7D"/>
<path d="M41.5625 61.0089L59.2336 57.2871L75.9733 144.86L58.1465 149.591L41.5625 61.0089Z" fill="#8ED0D3"/>
<path d="M53.1181 0.9375L34.0625 4.09027L41.4369 61.0855L59.208 57.3461L53.1181 0.9375Z" fill="#77BFC5"/>
<path d="M34.0617 4.20703L31.875 6.90984L38.9867 63.0709L41.6401 61.0773L34.0617 4.20703Z" fill="#5D989E"/>
<path d="M55.8887 150.315L58.219 149.648L41.635 61.084L38.9766 63.0691L55.8887 150.315Z" fill="#4F8B92"/>
<path d="M17.8197 113.051L8.90625 114.946L39.4485 188.676L47.4227 186.866L17.8197 113.051Z" fill="#4F8B92"/>
<path d="M0.25 58.1787L9.2288 56.0508L17.8448 113.073L8.90067 114.983L0.25 58.1787Z" fill="#5D989E"/>
<path d="M9.04688 56.0512L18.1066 48.9531L26.363 106.752L17.8085 113.082L9.04688 56.0512Z" fill="#77BFC5"/>
<path d="M26.3649 106.752L27.545 102.739L20.0235 46.8516L18.0859 48.9923L26.3649 106.752Z" fill="#5D989E"/>
<path d="M47.4259 186.787L55.116 180.33L26.3751 106.773L17.7891 113.088L47.4259 186.787Z" fill="#8ED0D3"/>
<path d="M82.9812 206.935L55.0997 180.383L47.3828 186.769L75.4818 212.797L82.9812 206.935Z" fill="#77BFC5"/>
<path d="M55.1154 180.381L56.7728 176.168L27.5415 102.754L26.3594 106.784L55.1154 180.381Z" fill="#4F8B92"/>
<path d="M85.1207 202.828L82.985 206.972L55.1016 180.387L56.7632 176.184L85.1207 202.828Z" fill="#467A7D"/>
<path d="M20.0248 46.8516H11.9288L4.70076 50.2955L0 55.635L0.24833 58.1743L9.05587 56.0919L18.0923 48.9993" fill="white"/>
<path d="M75.4784 212.77L47.3673 186.787L39.4219 188.527L68.8241 214.985L75.4784 212.77Z" fill="#467A7D"/>
</svg>
