<svg width="117" height="113" viewBox="0 0 117 113" fill="none" xmlns="http://www.w3.org/2000/svg">
<path d="M61.7556 54.1474L61.2297 59.7412L88.002 112L93.5021 108L61.7556 54.1474Z" fill="#0BAB5C"/>
<path d="M74.4759 47.9411L61.8365 54.4374L93.5023 107.999L107.002 100.999L74.4759 47.9411Z" fill="#42B98C"/>
<path d="M87.0586 7.67796L82.721 2.70493L67.7236 39.8774L74.4859 47.9576L87.0586 7.67796Z" fill="#42B98C"/>
<path d="M64.8954 36.5838L67.7263 40.0322L82.7422 2.7207L76.8968 5.36334L64.8954 36.5838Z" fill="#01E0A5"/>
<path d="M36.1965 2.28765L30.2852 2.10367L26.7897 6.94843L35.0094 7.90185L36.1965 2.28765Z" fill="#42B98C"/>
<path d="M50.3276 45.8368L26.8284 6.91161L35.0076 7.88371L61.8342 54.4504L50.3276 45.8368Z" fill="#0BAB5C"/>
<path d="M36.2002 2.27211L35.0053 7.89021L61.8311 54.4605L74.4955 47.951L36.2002 2.27211Z" fill="#8DFF1A"/>
<path d="M61.2426 60.1806L3.30686 59.9327L0.460685 57.0606L61.8422 54.4359L61.2426 60.1806Z" fill="#01E0A5"/>
<path d="M0.571718 57.3777L3.45624 51.1123L49.992 45.258L61.8298 54.4482L0.571718 57.3777Z" fill="#42B98C"/>
</svg>
