<svg width="233" height="261" viewBox="0 0 233 261" fill="none" xmlns="http://www.w3.org/2000/svg">
<path d="M94 206.074L76.0235 204.993L70.6361 257.03L82.5884 259.572L94 206.074Z" fill="#42B98C"/>
<path d="M82.6006 259.504L89.4834 259.105L97.2248 214.096L90.1349 214.343L82.6006 259.504Z" fill="#0BAB5C"/>
<path d="M76.1076 204.822L71.6982 199.09L66.4387 253.939L70.7838 257.091L76.1076 204.822Z" fill="#21ED94"/>
<path d="M68.166 141.091L75.2216 138.111L76.0096 204.771L71.4864 198.998L68.166 141.091Z" fill="#42B98C"/>
<path d="M87.0814 135.691L94.4052 137.248L96.4956 189.74L88.7471 196.1L87.0814 135.691Z" fill="#0BAB5C"/>
<path d="M89.0101 205.791L76.0082 204.767L75.0508 138.161L87.1003 135.632L89.0101 205.791Z" fill="#8DFF1A"/>
<path d="M231.227 203.047L227.503 209.934L170.801 203.21L172.851 193.568L231.227 203.047Z" fill="#0BAB5C"/>
<path d="M231.097 202.942L227.446 197.333L184.608 184.817L172.796 193.562L231.097 202.942Z" fill="#00FF86"/>
<path d="M185.317 184.613L199.141 144.271L172.775 193.583L185.317 184.613Z" fill="#21ED94"/>
<path d="M172.805 193.556L160.076 188.924L191.31 142.774L199.188 144.449L172.805 193.556Z" fill="#8DFF1A"/>
<path d="M167.35 240.112L128.398 211.465L144.684 210.08L174.558 235.617L167.35 240.112Z" fill="#057346"/>
<path d="M88.808 195.935L172.867 193.551L170.821 203.17L89.0891 205.835L88.808 195.935Z" fill="#42B98C"/>
<path d="M174.428 235.676L144.548 209.992L153.667 209.174L172.341 227.13L174.428 235.676Z" fill="#42B98C"/>
<path d="M96.4455 189.712L88.8319 195.929L172.918 193.548L160.096 188.96" fill="#21ED94"/>
<path d="M167.321 208.506L170.781 203.055L227.375 209.93L222.624 214.081" fill="#01E0A5"/>
<path d="M88.9614 205.777L170.805 203.135L167.373 208.469L90.0485 214.617L88.9614 205.777Z" fill="#0BAB5C"/>
<path d="M94.4035 137.311L87.0859 135.755L120.85 91.9469L125.114 94.5213L94.4035 137.311Z" fill="#01E0A5"/>
<path d="M120.499 91.7421L168.94 16.7197L173.211 14.8867L125.398 94.462L120.499 91.7421Z" fill="#0BAB5C"/>
<path d="M109.997 85.8096L164.269 13.7883L168.822 16.8618L120.697 91.8835L109.997 85.8096Z" fill="#42B98C"/>
<path d="M164.263 13.8937L163.768 9.08979L103.134 84.1139L110.015 85.5774L164.263 13.8937Z" fill="#00FF86"/>
<path d="M103.33 83.4896L76.5664 114.713L84.0079 116.296L110.132 85.8239L103.33 83.4896Z" fill="#0BAB5C"/>
<path d="M87.3839 135.694L84.1005 116.344L110.203 85.6833L120.677 91.9563L87.3839 135.694Z" fill="#21ED94"/>
<path d="M168.807 16.9531L164.246 13.8209L163.758 9.0773L168.177 9.12847L172.606 11.8939L173.193 14.8906L168.807 16.9531Z" fill="#8DFF1A"/>
<path d="M75.1675 138.421L68.0175 141.248L4.00293 112L9.50289 108L75.1675 138.421Z" fill="#21ED94"/>
<path d="M94 206.074L76.0235 204.993L70.6361 257.03L82.5884 259.572L94 206.074Z" fill="#42B98C"/>
<path d="M82.6006 259.504L89.4834 259.105L97.2248 214.096L90.1349 214.343L82.6006 259.504Z" fill="#0BAB5C"/>
<path d="M76.1076 204.822L71.6982 199.09L66.4387 253.939L70.7838 257.091L76.1076 204.822Z" fill="#21ED94"/>
<path d="M68.166 141.091L75.2216 138.111L76.0096 204.771L71.4864 198.998L68.166 141.091Z" fill="#42B98C"/>
<path d="M87.0814 135.691L94.4052 137.248L96.4956 189.74L88.7471 196.1L87.0814 135.691Z" fill="#0BAB5C"/>
<path d="M89.0101 205.791L76.0082 204.767L75.0508 138.161L87.1003 135.632L89.0101 205.791Z" fill="#8DFF1A"/>
<path d="M231.227 203.047L227.503 209.934L170.801 203.21L172.851 193.568L231.227 203.047Z" fill="#0BAB5C"/>
<path d="M231.097 202.942L227.446 197.333L184.608 184.817L172.796 193.562L231.097 202.942Z" fill="#00FF86"/>
<path d="M185.317 184.613L199.141 144.271L172.775 193.583L185.317 184.613Z" fill="#21ED94"/>
<path d="M172.805 193.556L160.076 188.924L191.31 142.774L199.188 144.449L172.805 193.556Z" fill="#8DFF1A"/>
<path d="M167.35 240.112L128.398 211.465L144.684 210.08L174.558 235.617L167.35 240.112Z" fill="#057346"/>
<path d="M88.808 195.935L172.867 193.551L170.821 203.17L89.0891 205.835L88.808 195.935Z" fill="#42B98C"/>
<path d="M174.428 235.676L144.548 209.992L153.667 209.174L172.341 227.13L174.428 235.676Z" fill="#42B98C"/>
<path d="M96.4455 189.712L88.8319 195.929L172.918 193.548L160.096 188.96" fill="#21ED94"/>
<path d="M167.321 208.506L170.781 203.055L227.375 209.93L222.624 214.081" fill="#01E0A5"/>
<path d="M88.9614 205.777L170.805 203.135L167.373 208.469L90.0485 214.617L88.9614 205.777Z" fill="#0BAB5C"/>
<path d="M94.4035 137.311L87.0859 135.755L120.85 91.9469L125.114 94.5213L94.4035 137.311Z" fill="#01E0A5"/>
<path d="M120.499 91.7421L168.94 16.7197L173.211 14.8867L125.398 94.462L120.499 91.7421Z" fill="#0BAB5C"/>
<path d="M109.997 85.8096L164.269 13.7883L168.822 16.8618L120.697 91.8835L109.997 85.8096Z" fill="#42B98C"/>
<path d="M164.263 13.8937L163.768 9.08979L103.134 84.1139L110.015 85.5774L164.263 13.8937Z" fill="#00FF86"/>
<path d="M103.33 83.4896L76.5664 114.713L84.0079 116.296L110.132 85.8239L103.33 83.4896Z" fill="#0BAB5C"/>
<path d="M87.3839 135.694L84.1005 116.344L110.203 85.6833L120.677 91.9563L87.3839 135.694Z" fill="#21ED94"/>
<path d="M168.807 16.9531L164.246 13.8209L163.758 9.0773L168.177 9.12847L172.606 11.8939L173.193 14.8906L168.807 16.9531Z" fill="#8DFF1A"/>
<path d="M14.999 95.0003L87.4588 135.801L84.0904 116.274L14.999 95.0003Z" fill="#8DFF1A"/>
<path d="M14.997 94.9994L9.49646 108L74.6921 138.413L87.3808 135.591L14.997 94.9994Z" fill="#42B98C"/>
</svg>
