<svg width="178" height="250" viewBox="0 0 178 250" fill="none" xmlns="http://www.w3.org/2000/svg">
<path d="M119.227 169.499L129.996 192.999L119.227 190.101L95.8534 187.87L97.6345 181.86L119.227 169.499Z" fill="#EE99BB"/>
<path d="M109.089 127.126L94.3961 125.929L97.6404 181.86L119.349 169.549L109.089 127.126Z" fill="#E08FAF"/>
<path d="M86.3568 170.966L97.6423 181.861L94.3165 125.5L86.3625 130.671L86.3568 170.966Z" fill="#B36C86"/>
<path d="M93.2767 110.872L88.4184 108.127L80.6633 114.841L86.2915 130.965L93.2767 110.872Z" fill="#904664"/>
<path d="M78.7552 145.672L86.8447 149.709L86.8419 171.7L67.4698 161.914L65.4321 156.928L78.7552 145.672Z" fill="#EE99BB"/>
<path d="M113.02 75.5076L120.487 81.8411L109.893 127.393L93.6977 125.914L113.02 75.5076Z" fill="#904664"/>
<path d="M93.6967 125.913L86.091 131.259L103.929 80.0629L113.305 75.4609L93.6967 125.913Z" fill="#E08FAF"/>
<path d="M42.4824 59.5295L49.9062 50.361L57.6664 61.3665L45.0748 71.5181L42.4824 59.5295Z" fill="#F5A2B0"/>
<path d="M45.196 71.2493L66.6037 98.9393L39.2732 94.766L34.8491 78.5151L45.196 71.2493Z" fill="#DD5B6E"/>
<path d="M66.4895 98.8123L86.5212 71.355L83.691 61.6058L57.8941 61.0354L45.169 71.3502L66.4895 98.8123Z" fill="#F1778C"/>
<path d="M45.2937 71.2973L42.5942 59.0375L34.8383 78.7221L45.2937 71.2973Z" fill="#D86578"/>
<path d="M150.356 70.6936L135.148 56.0262L141.567 45.2798L162.359 43.3516L150.356 70.6936Z" fill="#EE99BB"/>
<path d="M87.6629 105.658L63.0363 109.787L68.8892 94.1994L91.0966 84.0792L87.6629 105.658Z" fill="#EE99BB"/>
<path d="M87.6953 123.425L42.2012 122.104L39.7698 115.801L88.2521 116.864L87.6953 123.425Z" fill="#904664"/>
<path d="M128.1 36.3859L141.293 45.5793L123.884 20.0162" fill="#BB4558"/>
<path d="M150.236 70.5826L162.409 43.0075L164.766 47.4594L152.987 72.7448L150.236 70.5826Z" fill="#B36C86"/>
<path d="M66.2852 98.7832L86.3636 71.2649L103.995 80.1039L100.125 90.4057" fill="#DD5B6E"/>
<path d="M103.631 80.2434L85.9221 71.2483L111.573 55.2843L113.236 76.2818L103.631 80.2434Z" fill="#BB4558"/>
<path d="M136.374 86.8073L163 75.9551L139.56 74.7621L120.707 82.3532L136.374 86.8073Z" fill="#BB4558"/>
<path d="M111.517 55.4821L119.749 20.5068L137.156 17.2266L111.517 55.4821Z" fill="#F5A2B0"/>
<path d="M140.015 75.0955L111.522 55.408L113.253 76.4492L120.706 81.9892L140.015 75.0955Z" fill="#D86578"/>
<path d="M139.903 75.1116L162.39 76.0982L173.265 57.0364L158.784 40.9414L139.903 75.1116Z" fill="#D86578"/>
<path d="M158.747 41.0113L137.199 17.2317L160.262 17.2343L170.733 35.4392L158.747 41.0113Z" fill="#F5A2B0"/>
<path d="M139.945 75.1712L111.536 55.4262L137.167 17.202L158.819 41.0434L139.945 75.1712Z" fill="#F1778C"/>
<path d="M170.554 35.2298L158.718 41.157L172.949 57.0277L170.554 35.2298Z" fill="#BB4558"/>
<path d="M2.68153 136.772L12.9105 152.135L11.2072 122.657L2.68153 136.772Z" fill="#BB4558"/>
<path d="M111.535 55.4598L119.89 20.4622L105.692 8.80226L111.535 55.4598Z" fill="#F1778C"/>
<path d="M57.6504 61.4545L85.8432 71.4897L51.4613 30.1256L50.0156 50.5248L57.6504 61.4545Z" fill="#D86578"/>
<path d="M10.8948 122.74L12.5916 152.167L30.3898 138.607L20.3668 112.134L10.8948 122.74Z" fill="#DD5B6E"/>
<path d="M79.8764 21.7395L67.8535 51.626L51.3809 29.991L75.7346 3.82145L79.8764 21.7395Z" fill="#F5A2B0"/>
<path d="M75.527 3.90175L79.6579 21.8602L105.859 8.67188L75.527 3.90175Z" fill="#DD5B6E"/>
<path d="M105.904 8.59894L79.8975 21.7277L67.623 51.5339L111.555 55.4809L105.904 8.59894Z" fill="#D86578"/>
<path d="M67.4992 51.4332L86.0107 71.4875L111.508 55.3301L67.4992 51.4332Z" fill="#DD5B6E"/>
<path d="M48.0105 106.8L19.8421 112.215L30.1873 139.016L60.7086 134.26L71.306 115.01L48.0105 106.8Z" fill="#F1778C"/>
<path d="M66.6904 98.8398L39.3146 94.5973L47.5202 106.764L70.8038 114.844L66.6904 98.8398Z" fill="#D86578"/>
<path d="M80.6051 115.115L70.7606 115.115L66.2989 98.7503L100.18 90.3633L96.28 102.084L80.6051 115.115Z" fill="#BB4558"/>
<path d="M84.7379 125.865L78.8397 145.622L60.491 134.127L70.8401 114.883L80.6754 114.884L84.7379 125.865Z" fill="#F5A2B0"/>
<path d="M20.1305 113.009L2.6649 137.127L7.06735 113.007L20.1326 96.7214L20.1305 113.009Z" fill="#F1778C"/>
<path d="M19.6106 112.781L20.4111 96.4746L39.3228 94.5939L47.8147 106.754L19.6106 112.781Z" fill="#F5A2B0"/>
<path d="M119.386 189.94L95.8092 187.9L97.329 238.868L122.442 247.459L119.386 189.94Z" fill="#E08FAF"/>
<path d="M122.208 247.76L130.208 243.147L130.002 193.001L119.002 190L122.208 247.76Z" fill="#B36C86"/>
<path d="M97.6397 181.861L86.7356 171.399L84.1487 177.593L95.8586 187.871L97.6397 181.861Z" fill="#904664"/>
<path d="M84.058 177.631L62.0169 162.717L67.3601 161.605L86.7294 171.621L84.058 177.631Z" fill="#B36C86"/>
<path d="M67.2809 161.667L79.6406 144.789L38.1811 158.042L45.3339 166.588L67.2809 161.667Z" fill="#BB4558"/>
<path d="M30.1118 138.78L40.2475 157.483L78.7594 145.532L60.4691 134.089L30.1118 138.78Z" fill="#DD5B6E"/>
<path d="M30.2338 138.477L12.7722 151.927L22.2815 163.427L45.2635 166.559L30.2338 138.477Z" fill="#D86578"/>
</svg>
